<svg width="201" height="199" fill="none" xmlns="http://www.w3.org/2000/svg"><path fill-rule="evenodd" clip-rule="evenodd" d="M95.464 5.144c2.128 7.422 8.618 18.896 15.019 26.554 3.48 4.164 8.973 13.059 12.205 19.77 7.276 15.1 9.856 17.153 5.517 4.386-4.343-12.772-6.008-27.03-4.531-38.794.652-5.195 1.514-9.977 1.914-10.627.402-.65-1.545-1.814-4.325-2.585-9.036-2.51-8.89-2.7-7.969 10.301.456 6.448 1.18 13.229 1.607 15.07.472 2.045-.52 1.002-2.55-2.678-2.905-5.268-4.471-10.315-6.957-22.439-.514-2.506-1.501-3.014-5.856-3.014-5.193 0-5.227.033-4.074 4.056ZM78.3 3.384c-1.702.326-3.421 1.441-3.82 2.48-.943 2.458 4.458 11.583 11.8 19.937l5.826 6.629-4.686-2.61c-2.578-1.435-8.806-6.667-13.839-11.628-9.149-9.015-9.153-9.017-13.055-6.998-2.146 1.11-3.903 2.603-3.903 3.315 0 3.158 19.41 15.165 31.77 19.654 4.763 1.73 12.367 5.766 16.898 8.97 13.186 9.323 15.651 9.785 6.811 1.274-14.137-13.609-20.963-23.62-24.746-36.286-1.721-5.766-2.244-6.04-9.056-4.737Zm55.163 7.326c-2.035 3.296-2.155 28.423-.176 36.87 1.436 6.119 1.63 10.344.741 16.017-.664 4.239-1.014 10.444-.778 13.792.477 6.74.514 6.65 4.281-9.99 2.686-11.86 8.573-23.962 15.478-31.81 2.957-3.36 5.376-6.587 5.376-7.171 0-1.359-6.879-8.575-8.176-8.575-1.59 0-6.82 9.227-10.193 17.981l-3.137 8.141.565-8.707c.488-7.565 1.996-13.567 5.389-21.465.591-1.375-.399-2.793-3.039-4.354-4.644-2.745-5.056-2.792-6.331-.729ZM44.821 23.394c-2.346 1.838-4.266 4.106-4.266 5.04 0 1.982 10.317 7.844 20.41 11.598l7.04 2.618-8.894-.71c-4.893-.389-12.368-1.904-16.613-3.365-4.244-1.462-7.91-2.657-8.143-2.657-.94 0-4.66 8.335-4.012 8.985.384.383 5.428 1.322 11.208 2.086 8.459 1.117 13.04.96 23.454-.799 7.12-1.204 14.666-1.654 14.666-1.654s22.477 1.961 22.477.742c0-.727-1.368-1.322-3.04-1.322-5.177 0-22.232-5.234-30.205-9.27-4.177-2.114-10.344-6.271-13.705-9.238l-6.11-5.394-4.267 3.34ZM158.21 42.95c-5.581 7.017-11.354 18.32-14.539 28.467-.925 2.947-2.732 6.564-4.013 8.038-3.572 4.108-12.068 17.222-12.068 18.63 0 .688 3.413-2.523 7.586-7.136 9.604-10.617 23.232-20.231 33.395-23.559 4.341-1.421 8.082-2.693 8.315-2.827.764-.44-2.48-11.102-3.589-11.788-1.097-.678-10.591 5.163-19.736 12.14-4.252 3.245-4.77 3.394-3.49.999 2.374-4.437 10.668-13.955 15.526-17.817 4.377-3.482 4.408-3.582 2.386-7.853-1.128-2.38-2.528-4.327-3.113-4.327-.587 0-3.583 3.164-6.66 7.033Zm-84.18 8.663c-12.12 4.074-34.207 5.69-42.109 3.081-6.043-1.996-7.344-.977-7.778 6.084 0 0-.304 1.435.917 3.102 1.544 2.109 5.454 2.166 5.454 2.166 3.682-.005 10.009-.486 14.06-1.069 6.697-.962 7.113-.878 4.599.92-3.952 2.823-18.514 7.53-23.303 7.53-3.844 0-4.06.285-4.06 5.358 0 3.41.608 5.346 1.674 5.326 6-.114 30.451-14.263 35.809-20.721.91-1.097 7.31-4.675 14.222-7.95 6.912-3.277 12.567-6.297 12.567-6.712 0-1.08-.877-.871-12.051 2.885Zm14.625 8.784C78.008 67.576 74.61 81.324 81.1 90.958c5.886 8.74 18.424 12.962 26.952 9.074l3.35-1.528-3.957-3.698c-4.858-4.54-5.02-8.382-.543-12.86 2.668-2.67 4.205-3.22 7.029-2.512 1.989.497 4.097 1.76 4.687 2.808 1.938 3.444 3.615 1.988 3.594-3.121-.029-6.414-4.766-14.8-10.574-18.715-6.244-4.21-16.747-4.213-22.984-.008ZM59.971 71.421C51.073 80.325 45.56 84.62 38.91 87.83c-4.956 2.394-10.712 4.371-10.712 4.371s-5.298 2.117-3.763 7.826c.823 3.053 2.235 5.55 3.14 5.55 1.934 0 9.877-5.202 18.253-11.955l5.943-4.79-2.595 4.689c-1.428 2.578-6.391 8.43-11.032 13.003-8.393 8.274-8.425 8.334-6.206 11.722 2.794 4.267 3.311 4.248 7.555-.277 5.162-5.503 11.303-16.18 15.08-26.218 1.848-4.911 6.774-14.062 10.947-20.338 4.175-6.275 7.345-11.554 7.046-11.731-.3-.177-5.968 5.105-12.596 11.738Zm35.225-.453c.31 2.688-.304 3.796-2.492 4.492-3.89 1.235-7.211-2.088-5.977-5.98 1.414-4.456 7.915-3.315 8.47 1.488Zm73.896 5.704c-9.741 3.966-18.019 9.234-25.713 16.366-3.466 3.214-7.762 5.842-7.762 5.842s-21.418 9.761-21.418 10.946c0 .59 3.053-.132 6.783-1.603 12.052-4.753 29.87-7.114 41.091-5.445 5.396.804 10.33 1.461 10.965 1.461 1.221 0 4.093-7.19 4.093-10.247 0-2.22-10.954-2.457-21.457-.464-3.902.74-7.348 1.092-7.659.781-1.065-1.063 12.381-6.335 21.417-8.395 8.937-2.038 9.038-2.11 9.038-6.524 0-2.456-.454-4.746-1.01-5.09-.554-.342-4.32.725-8.368 2.372Zm-104.82 5.847c-1.626 13.733-8.54 29.834-17.582 40.939l-5.912 7.262 4.555 4.418c2.505 2.429 4.761 4.157 5.012 3.84 2.325-2.942 6.873-11.792 9.663-18.801l3.41-8.571-.768 9.158c-.423 5.036-1.962 12.27-3.419 16.076l-2.648 6.917 2.847 2.345c5.807 4.783 7.226 2.826 8.715-12.023.45-4.495-.082-12.977-1.27-20.243-1.126-6.879-1.563-14.066-1.563-14.066s2.078-23.663.962-23.663c-.684 0-1.586 2.885-2.003 6.412Zm4.884 12.342c6.304 18.638 6.792 21.177 6.837 35.5.025 8.105-.448 16.661-1.049 19.013-1.063 4.159-.94 4.321 4.383 5.754 3.012.812 6.144 1.062 6.961.557 1.652-1.02.674-18.249-1.46-25.688-.681-2.378-.942-4.325-.578-4.325 1.587 0 8.637 18.042 9.551 24.44.994 6.958 1.065 7.047 6.015 7.457 6.106.508 6.305-.758 1.754-11.056-3.757-8.497-10-18.128-16.116-24.859-2.343-2.579-5.889-8.607-7.88-13.397-3.136-7.543-10.289-18.926-8.418-13.396Zm19.12 19.781c13.567 12.674 20.809 23.297 24.647 36.148.935 3.132 1.987 5.694 2.337 5.694 2.802 0 10.988-3.403 10.984-4.566-.006-2.072-4.844-9.842-10.338-16.607-2.576-3.171-4.396-6.055-4.043-6.409.989-.988 13.348 9.195 18.576 15.307l4.669 5.459 4.341-2.642c2.387-1.452 3.964-3.25 3.503-3.996-2.279-3.688-20.645-14.858-29.792-18.117-5.688-2.028-13.355-5.869-17.037-8.536-16.265-11.782-19.326-12.459-7.847-1.735Zm41.991-1.964c-4.259.958-9.624 1.255-12.721.705-2.945-.524-8.971-.939-13.389-.923-8.992.031-7.734.729 7.825 4.342 11.546 2.681 24.692 9.11 32.261 15.775 3.218 2.833 6.398 5.152 7.067 5.152 1.382 0 8.414-7.036 8.414-8.418 0-1.081-8.56-5.566-18.745-9.825l-7.365-3.077 6.695-.023c3.682-.012 10.822 1.385 15.867 3.105l9.172 3.127 2.511-4.131c2.363-3.888 2.375-4.211.2-5.466-3.462-2-29.379-2.234-37.792-.343Z" fill="#7E7E7E"/><path fill-rule="evenodd" clip-rule="evenodd" d="M96.513 6.977c2.128 7.422 8.684 17.31 15.085 24.97 3.48 4.163 8.764 13.858 11.996 20.57 7.276 15.1 6.5 10.826 4.333 3.247-4.342-12.772-6.893-27.212-5.416-38.975.652-5.195 2.167-9.812 2.167-9.812s-.47-1.325-3.25-2.097c-9.037-2.51-7.488-3.257-6.567 9.744.234 3.297.529 7.184.762 10.197.235 3.036-1.841 4.93-3.311 2.264" fill="#7E7E7E"/><path fill-rule="evenodd" clip-rule="evenodd" d="M87.687 60.385c-10.633 7.825-13.825 19.985-7.554 30.56 5.885 9.926 19.553 13.112 28.08 9.225l3.351-1.529-3.957-3.697c-4.858-4.54-5.02-8.382-.544-12.86 2.669-2.67 4.206-3.22 7.03-2.512.777.194 1.88.816 2.937 1.63 1.649 1.27 3.183 4.33 3.183 4.33s.131.18.173.314c.066.205-.06.53 0 .551.515.176 1.997-4.804 1.987-7.139-.028-6.414-4.765-14.798-10.574-18.714-6.243-4.21-17.875-4.364-24.112-.159Zm5.615 7.825c1.862 1.776 2.28 3.62 1.084 5.414-1.408 2.11-5.083 2.147-6.5 0-.993-1.506-1.218-3.126-.199-4.613 1.252-1.826 3.474-2.844 5.615-.8Z" fill="url(#a)"/><path fill-rule="evenodd" clip-rule="evenodd" d="M120.213 85.533a1.42 1.42 0 0 0 .178.33.533.533 0 0 1 .014.145 1.58 1.58 0 0 1-.022.216c-.013.093-.024.164.003.173.079.027.181-.067.297-.255.036-.06.075-.129.114-.207.643-1.269 1.584-4.814 1.576-6.677-.028-6.414-4.765-14.798-10.574-18.714-6.243-4.21-17.875-4.364-24.112-.159-10.633 7.825-13.825 19.985-7.554 30.56 5.885 9.926 19.553 13.112 28.08 9.225l3.351-1.529-3.957-3.697c-4.858-4.54-5.02-8.382-.544-12.86 2.669-2.67 4.206-3.22 7.03-2.512.777.194 1.88.816 2.937 1.63 1.649 1.27 3.183 4.33 3.183 4.33Zm-6.025-6.343c.855.214 2.01.874 3.082 1.7.882.68 1.708 1.813 2.301 2.742a23.154 23.154 0 0 1 .92 1.584l.054.103.005.01.003.005.005.007.047.07c.188-.448.397-1.062.594-1.75.431-1.505.786-3.29.781-4.401-.013-3.12-1.176-6.753-3.068-10.102-1.891-3.347-4.489-6.371-7.332-8.288-3.039-2.05-7.425-3.13-11.843-3.168-4.414-.038-8.792.964-11.823 3.005C77.42 68.432 74.32 80.373 80.47 90.745c2.883 4.862 7.68 8.087 12.823 9.616 5.146 1.529 10.595 1.348 14.757-.55l2.815-1.284-3.527-3.296c-2.458-2.296-3.802-4.483-3.897-6.724-.095-2.248 1.072-4.429 3.344-6.702 1.344-1.344 2.446-2.201 3.602-2.614 1.171-.419 2.348-.365 3.8 0m-18.812-8.36c.212 1.023-.015 2.039-.663 3.011-.793 1.189-2.202 1.767-3.572 1.772-1.371.005-2.785-.564-3.583-1.774-1.052-1.596-1.33-3.394-.195-5.052.663-.967 1.606-1.756 2.71-2.012 1.126-.261 2.348.05 3.5 1.15.966.92 1.593 1.893 1.803 2.904Zm-.99 2.793c1.196-1.794.778-3.638-1.084-5.414-2.142-2.043-4.363-1.025-5.615.8-1.02 1.488-.794 3.108.2 4.614 1.416 2.147 5.09 2.11 6.499 0Z" fill="url(#b)"/><path fill-rule="evenodd" clip-rule="evenodd" d="M87.887 61.522c-10.633 7.825-12.77 18.655-6.5 29.23 5.885 9.926 17.47 11.467 25.998 7.58l1.083-1.083L105.219 94c-4.858-4.54-4.376-11.55.422-14.742 3.035-2.02 5.916-1.703 9.327-.415.885.334 1.4.528 2.166 1.083 2.025 1.464 3.079 5.606 3.079 5.606s.131.18.174.313c.065.206-.06.531 0 .552.515.175 1.997-4.804 1.987-7.139-.028-6.414-5.931-13.822-11.739-17.737-6.244-4.21-16.511-4.206-22.748 0Zm5.416 6.69c1.861 1.775 2.28 3.618 1.083 5.412-1.408 2.111-5.083 2.148-6.5 0-.992-1.505-1.218-3.125-.198-4.612 1.252-1.827 3.473-2.844 5.615-.8Z" fill="#7E7E7E"/><path d="M8.227 197.487c-2.883.006-5.02-.807-6.41-2.438-.496-.585-.898-1.362-1.209-2.332-.31-.971-.465-2.15-.468-3.538-.003-1.387.221-2.632.674-3.735.452-1.104 1.07-1.956 1.856-2.56 1.523-1.128 3.365-1.694 5.523-1.699.617 0 1.218.048 1.804.147.585.099 1.025.202 1.319.31l.417.161c.421.162.592.647.413.991-.156.298-.55.447-.907.306-.843-.276-1.497-1.51-3.045-1.683-1.285-.143-2.302.404-2.726.62a5.55 5.55 0 0 0-1.362.985c-.831.787-1.414 1.945-1.75 3.472-.2.863-.297 1.919-.294 3.168.002 1.249.182 2.402.54 3.457.356 1.055.674 1.826 1.13 2.333.455.508 1.096.922 1.744 1.221.648.298 1.165.472 1.55.516a11.88 11.88 0 0 0 3.26-.099c.694-.11 1.218-.211 1.572-.304l.531-.163.07.232c-1.17.418-2.581.63-4.23.633l-.002-.001ZM17.235 181.419v-.234h4.169v.234h-1.148v15.924h1.148v.234h-4.169v-.234h1.078v-15.924h-1.078ZM24.925 181.372a71.267 71.267 0 0 1 4.8-.187c3.857 0 5.785 1.288 5.785 3.864 0 1.093-.266 2.068-.797 2.927-.53.858-1.444 1.428-2.74 1.709l4.684 7.892h-2.178l-4.59-7.751h-3.02v7.751h-1.944v-16.205Zm4.8.047c-.905 0-1.857.055-2.856.164v8.009h3.465c2.202-.094 3.302-1.593 3.302-4.496 0-1.187-.328-2.092-.983-2.717-.656-.64-1.632-.96-2.927-.96ZM50.188 181.185h.722v9.367c0 2.451-.484 4.254-1.452 5.409-.968 1.14-2.232 1.709-3.793 1.709-.984 0-1.819-.086-2.506-.257a5.4 5.4 0 0 1-1.943-1.007c-1.25-.968-1.874-2.919-1.874-5.854v-9.367h1.944v9.343c0 2.841.43 4.738 1.288 5.691.437.468.89.788 1.358.96.484.171 1.061.257 1.733.257 1.498 0 2.275-.546 3.165-1.639.905-1.108 1.358-2.865 1.358-5.269v-9.343ZM54.432 181.372a71.27 71.27 0 0 1 4.8-.187c3.856 0 5.784 1.288 5.784 3.864 0 1.093-.266 2.068-.796 2.927-.531.858-1.444 1.428-2.74 1.709l4.683 7.892h-2.177l-4.59-7.751h-3.02v7.751h-1.944v-16.205Zm4.8.047c-.905 0-1.858.055-2.857.164v8.009h3.466c2.201-.094 3.302-1.593 3.302-4.496 0-1.187-.328-2.092-.984-2.717-.656-.64-1.631-.96-2.927-.96ZM76.81 197.694c-2.92 0-4.8-.359-6.487-2.482-.646-.814-.905-1.382-1.218-2.365-.312-.984-.704-2.316-.673-3.719.034-1.486.431-2.526.884-3.634.468-1.124 1.1-1.991 1.897-2.6 1.545-1.139 3.41-1.709 5.597-1.709.702 0 1.389.055 2.06.164.671.094.894.145 1.222.254.328.109.627.418.627.418s.418.492-.073.97c-.395.387-1.181-.134-1.181-.134-.627-.418-1.49-1.261-2.656-1.438-1.717-.261-3.036.539-4.144 1.616-.843.796-1.437 1.967-1.78 3.512-.203.875-.304 1.944-.304 3.209 0 1.264.18 2.435.538 3.512.36 1.062.765 1.85 1.218 2.365.468.515 1.03.929 1.686 1.241.656.297 1.178.469 1.569.515.39.047.85.071 1.381.071.547 0 1.273-.063 2.178-.188v-4.824h-2.833v-.234h5.784v.234h-1.007v4.614c-1.187.421-2.615.632-4.285.632ZM85.207 181.419v-.234h4.168v.234h-1.148v15.924h1.148v.234h-4.168v-.234h1.077v-15.924h-1.078ZM93.595 197.694h-.699l6.584-16.392.257-.117 6.319 16.509h-1.99l-1.827-5.152h-6.42l-2.224 5.152Zm5.577-13.863-3.259 8.477h6.256l-2.997-8.477ZM125.515 197.694c-2.919 0-5.081-.828-6.486-2.482-.5-.594-.906-1.382-1.218-2.365-.312-.984-.468-2.178-.468-3.583 0-1.405.226-2.662.679-3.77.468-1.124 1.1-1.991 1.897-2.6 1.545-1.139 3.411-1.709 5.596-1.709.625 0 1.233.055 1.827.164.593.094 1.038.195 1.334.304l.422.164-.07.234c-1.062-.421-2.233-.632-3.513-.632-1.655 0-3.036.539-4.145 1.616-.843.796-1.436 1.967-1.779 3.512-.203.875-.305 1.944-.305 3.209 0 1.264.18 2.435.539 3.512.359 1.062.765 1.85 1.218 2.365.468.515 1.03.929 1.686 1.241.655.297 1.178.469 1.568.515.391.047.859.071 1.405.071.562 0 1.195-.055 1.897-.164a17.54 17.54 0 0 0 1.593-.305l.538-.164.07.235c-1.186.421-2.614.632-4.285.632ZM142.224 181.185v1.07h-7.377v6.189h6.838v.652h-6.838v7.41h7.892v1.071h-9.417v-16.392h8.902ZM147.401 197.577h-.722v-16.392h.796l9.323 15.151v-15.151h.723v16.392h-1.71l-8.41-13.582v13.582ZM166.619 197.577h-1.944v-15.74h-4.051v-.652h10.069v.652h-4.074v15.74ZM183.117 181.185v1.07h-7.377v6.189h6.838v.652h-6.838v7.41h7.892v1.071h-9.417v-16.392h8.902ZM188.408 181.372a71.268 71.268 0 0 1 4.8-.187c3.856 0 5.784 1.288 5.784 3.864 0 1.093-.265 2.068-.796 2.927-.531.858-1.444 1.428-2.74 1.709l4.683 7.892h-2.177l-4.59-7.751h-3.021v7.751h-1.943v-16.205Zm4.8.047c-.905 0-1.858.055-2.857.164v8.009h3.466c2.201-.094 3.302-1.593 3.302-4.496 0-1.187-.328-2.092-.984-2.717-.656-.64-1.631-.96-2.927-.96Z" fill="#7E7E7E"/><defs><linearGradient id="a" x1="77.073" y1="63.719" x2="121.89" y2="64.473" gradientUnits="userSpaceOnUse"><stop stop-color="#A47928"/><stop offset=".2" stop-color="#E5CB7B"/><stop offset=".653" stop-color="#B79040"/><stop offset=".804" stop-color="#F4DD8D"/></linearGradient><linearGradient id="b" x1="77.073" y1="63.719" x2="121.89" y2="64.473" gradientUnits="userSpaceOnUse"><stop stop-color="#A47928"/><stop offset=".2" stop-color="#E5CB7B"/><stop offset=".653" stop-color="#B79040"/><stop offset=".804" stop-color="#F4DD8D"/></linearGradient></defs></svg>