<svg width="201" height="199" fill="none" xmlns="http://www.w3.org/2000/svg"><path fill-rule="evenodd" clip-rule="evenodd" d="m103.026 72.492.001-.002.014-.02.088-.131c.082-.122.214-.311.393-.557a35.86 35.86 0 0 1 1.632-2.07 42.217 42.217 0 0 1 6.395-6.122c5.562-4.28 13.414-7.948 23.208-6.27 14.749 2.53 21.034 15.527 22.281 21.761l.022.107.028.105c.734 2.725 1.199 8.427-.826 14.402a25.499 25.499 0 0 1-1.358 3.257l8.649-4.73c1.294-5.916.828-11.31-.024-14.55-1.577-7.684-9.182-23.731-27.65-26.897-12.21-2.094-21.901 2.565-28.381 7.552a48.875 48.875 0 0 0-7.409 7.089 61.454 61.454 0 0 0-3.557-3.554c-3.881-3.571-9.522-7.814-16.161-9.806-9.171-2.751-18.25-1.973-25.97 2.063-7.713 4.033-13.833 11.192-17.351 20.789-3.038 8.284-1.177 16.497 2.033 23.11 3.179 6.547 7.851 11.908 11.292 14.941a7966.584 7966.584 0 0 0 26.838 27.09 2355.88 2355.88 0 0 0 12.19 12.166c3.174 3.137 5.604 5.5 6.375 6.117 1.794 1.436 3.769 2.016 5.678 1.692a6.1 6.1 0 0 0 3.628-2.063l34.389-34.389 4.11-4.11-14.591 5.198-28.722 28.723a2.668 2.668 0 0 1-.343-.237l-.003-.003-.04-.033-.029-.025a7.506 7.506 0 0 1-.037-.033l-.054-.047a30.042 30.042 0 0 1-.397-.364c-.325-.303-.75-.706-1.266-1.204-1.031-.994-2.4-2.335-4.028-3.945a2395.09 2395.09 0 0 1-12.155-12.131 7879.26 7879.26 0 0 1-26.897-27.15l-.086-.087-.092-.08c-2.894-2.533-7.026-7.244-9.785-12.927-2.756-5.677-3.968-11.934-1.773-17.923 3.023-8.244 8.12-14.014 14.193-17.19 6.066-3.17 13.341-3.88 20.985-1.586 5.255 1.576 10.02 5.064 13.573 8.332a54.567 54.567 0 0 1 4.114 4.219 42.24 42.24 0 0 1 1.354 1.63l.06.08.01.012.001.001v.001h.001v.001l2.87 3.826 2.578-4.024.001-.002.001-.002Z" fill="#7E7E7E"/><path fill-rule="evenodd" clip-rule="evenodd" d="M99.025.805c-1.674.838-1.744 1.312-1.849 12.969-.042 5.036-.11 8.032-.228 9.605a90.66 90.66 0 0 0-10.572.943c-7.635 1.165-15.462 3.288-23.295 6.272-.831-1.466-2.513-4.584-4.382-8.114-2.547-4.772-4.989-8.925-5.442-9.216-2.233-1.53-5.059-.037-5.094 2.659-.034 1.166.803 2.987 4.535 9.945l3.965 7.363C47.016 37.482 37.433 43 28.26 49.608l-5.11-5.308c-3.558-3.679-6.907-6.885-7.5-7.103-1.256-.51-2.512-.219-3.593.801-.558.583-.768 1.202-.768 2.44v1.64l6.35 6.703 4.907 5.124A177.285 177.285 0 0 0 7.6 67.065c-7.156 7.012-7.107 8.547.393 15.663 11.741 11.141 23.874 20.258 36.159 27.202L32.185 90.224A187.284 187.284 0 0 1 18.827 79.4l-5.05-4.504 1.128-1.28c1.863-2.15 10.589-9.47 16.47-13.872C58.632 39.32 85.74 30.516 111.279 33.792c22.451 2.918 46.764 15.05 69.215 34.552l1.538 1.335c3.539 3.067 4.865 4.216 4.75 5.197-.068.587-.654 1.114-1.59 1.957a74.08 74.08 0 0 0-.629.571c-15.588 14.128-31.373 24.468-47.206 31.02-25.49 10.493-48.774 10.391-74.51-.41a116.7 116.7 0 0 1-5.698-2.565l16.075 16.738c1.117.311 2.233.603 3.349.877l.396.098.382.093c8.766 2.144 13.627 2.674 23.487 2.624 10.196 0 16.568-.819 25.637-3.276 22.5-5.989 46.225-20.219 66.862-40.08 7.157-6.86 7.304-8.6.981-14.793a185.42 185.42 0 0 0-15.705-13.8l4.869-5.113 6.419-6.739s.296-.661.356-1.114c.165-1.228-.565-2.383-1.123-2.966-1.082-1.02-2.338-1.311-3.593-.801-.594.218-3.977 3.46-7.536 7.176l-5.099 5.268c-9.156-6.596-18.698-12.137-28.293-16.407a390.36 390.36 0 0 1 3.775-7.22c3.803-7.068 4.675-8.925 4.64-10.091-.035-2.696-2.826-4.226-5.058-2.696-.489.328-2.791 4.262-5.687 9.617a2825.198 2825.198 0 0 1-4.111 7.718 125.547 125.547 0 0 0-5.717-2.042c-9.11-3.004-18.824-4.727-28.348-5.109l-.092-9.637c-.105-11.803-.175-12.13-1.919-12.969-1.011-.473-2.128-.473-3.07 0Z" fill="#858A8D"/><path d="M5.096 196.522c0 .623-.227 1.163-.681 1.619-.439.44-.969.661-1.589.661s-1.157-.221-1.611-.661a2.257 2.257 0 0 1-.658-1.619V169.17c0-.623.219-1.155.658-1.596.454-.456.99-.684 1.611-.684.62 0 1.158.22 1.612.661.181.198.325.403.43.616l9.306 18.691V169.17c0-.623.22-1.155.658-1.596.454-.456.991-.684 1.611-.684s1.15.228 1.589.684c.454.441.68.973.68 1.596v27.352c0 .623-.226 1.163-.68 1.619-.439.44-.968.661-1.589.661-.62 0-1.15-.228-1.588-.684a2.06 2.06 0 0 1-.454-.593l-9.305-18.691v17.688ZM23.252 185.125c0-2.522.885-4.672 2.655-6.45 1.77-1.778 3.911-2.667 6.423-2.667s4.653.889 6.423 2.667c1.77 1.778 2.655 3.928 2.655 6.45v4.559c0 2.523-.885 4.673-2.655 6.451-1.77 1.778-3.911 2.667-6.423 2.667s-4.652-.889-6.423-2.667c-1.77-1.778-2.655-3.928-2.655-6.451v-4.559Zm13.617 0c0-1.261-.446-2.332-1.339-3.214-.877-.896-1.944-1.344-3.2-1.344-1.256 0-2.33.448-3.223 1.344-.877.882-1.316 1.953-1.316 3.214v4.559c0 1.261.439 2.34 1.316 3.237.893.881 1.967 1.322 3.223 1.322 1.256 0 2.323-.441 3.2-1.322.893-.897 1.34-1.976 1.34-3.237v-4.559ZM60.018 177.831a2.257 2.257 0 0 1 1.021-1.413 2.24 2.24 0 0 1 1.725-.296c.59.152 1.052.501 1.385 1.048.333.532.431 1.102.295 1.71l-6.241 18.121c-.303.608-.689 1.079-1.158 1.413-.454.335-.983.456-1.589.365h-.862c-.605.091-1.142-.03-1.611-.365-.454-.334-.832-.805-1.135-1.413l-6.241-18.144a2.202 2.202 0 0 1 .295-1.71c.333-.547.794-.896 1.384-1.048a2.175 2.175 0 0 1 1.702.296c.545.335.893.806 1.044 1.413l4.993 14.133 4.993-14.11ZM73.181 189.684c0 1.261.44 2.34 1.317 3.237.892.881 1.967 1.322 3.223 1.322 1.255 0 2.322-.441 3.2-1.322.892-.897 1.339-1.976 1.339-3.237v-4.559c0-1.261-.447-2.332-1.34-3.214-.877-.896-1.944-1.344-3.2-1.344-1.255 0-2.33.448-3.222 1.344-.878.882-1.317 1.953-1.317 3.214v4.559Zm9.283 7.796c-1.392.881-2.973 1.322-4.743 1.322-2.512 0-4.653-.889-6.423-2.667-1.77-1.778-2.656-3.928-2.656-6.451v-4.559c0-2.522.886-4.672 2.656-6.45 1.77-1.778 3.91-2.667 6.423-2.667 1.77 0 3.35.44 4.743 1.322a2.35 2.35 0 0 1 .477-.661 2.159 2.159 0 0 1 1.588-.661c.62 0 1.15.228 1.589.684.454.44.68.972.68 1.595v18.235c0 .623-.226 1.163-.68 1.619-.439.44-.968.661-1.589.661-.62 0-1.15-.228-1.588-.684a2.071 2.071 0 0 1-.477-.638ZM105.477 168.691a2.257 2.257 0 0 1 1.021-1.413 2.242 2.242 0 0 1 1.725-.297c.59.152 1.052.502 1.384 1.049.333.532.432 1.102.295 1.709l-6.309 27.262a2.235 2.235 0 0 1-1.044 1.413 2.416 2.416 0 0 1-1.702.365h-.862a2.493 2.493 0 0 1-1.725-.365 2.257 2.257 0 0 1-1.022-1.413l-6.309-27.262a2.2 2.2 0 0 1 .295-1.709c.333-.547.795-.897 1.385-1.049a2.176 2.176 0 0 1 1.702.297c.544.334.892.805 1.044 1.413l5.061 21.882 5.061-21.882ZM129.92 194.243c.62 0 1.15.228 1.588.684.454.441.681.972.681 1.595s-.227 1.163-.681 1.619a2.16 2.16 0 0 1-1.588.661h-13.618a2.256 2.256 0 0 1-2.269-2.28c0-.623.219-1.154.658-1.595.454-.456.991-.684 1.611-.684h4.54v-13.676h-4.54a2.256 2.256 0 0 1-2.269-2.28c0-.623.219-1.155.658-1.595.454-.456.991-.684 1.611-.684h6.809c.62 0 1.15.228 1.589.684.454.44.681.972.681 1.595v15.956h4.539Zm-5.22-26.669c.454.441.681.973.681 1.596 0 .623-.227 1.162-.681 1.618a2.16 2.16 0 0 1-1.589.661 2.254 2.254 0 0 1-2.269-2.279c0-.623.219-1.155.658-1.596.454-.456.991-.684 1.611-.684s1.15.228 1.589.684ZM154.884 191.964c0 1.762-.885 3.343-2.655 4.741-1.77 1.398-4.289 2.097-7.557 2.097-2.966 0-5.334-.889-7.104-2.667l.023-.023c-.015 0-.031-.015-.046-.045a2.144 2.144 0 0 1-.681-1.596c0-.623.22-1.155.659-1.596.453-.456.991-.683 1.611-.683s1.157.22 1.611.661c0 .015.008.03.023.045.893.897 2.194 1.345 3.904 1.345 2.012 0 3.457-.251 4.334-.752.893-.517 1.339-1.026 1.339-1.527 0-.502-.332-1.003-.998-1.505-.651-.516-2.149-.775-4.494-.775-2.33 0-4.267-.699-5.81-2.097-1.543-1.398-2.315-2.978-2.315-4.741 0-1.763.885-3.343 2.656-4.741 1.77-1.398 4.289-2.097 7.557-2.097 2.966 0 5.333.889 7.104 2.667l-.023.022c.015 0 .038.008.068.023.439.456.658.996.658 1.619s-.227 1.162-.681 1.618a2.157 2.157 0 0 1-1.588.661c-.621 0-1.15-.228-1.589-.684-.015 0-.03-.007-.045-.023-.893-.896-2.194-1.344-3.904-1.344-2.012 0-3.465.258-4.357.775-.878.501-1.317 1.003-1.317 1.504 0 .501.326 1.011.976 1.527.666.502 2.164.752 4.494.752 2.345 0 4.289.699 5.833 2.097 1.543 1.398 2.314 2.979 2.314 4.742ZM163.963 189.684c0 1.261.438 2.34 1.316 3.237.893.881 1.967 1.322 3.223 1.322 1.255 0 2.322-.441 3.2-1.322.892-.897 1.339-1.976 1.339-3.237v-4.559c0-1.261-.447-2.332-1.339-3.214-.878-.896-1.945-1.344-3.2-1.344-1.256 0-2.33.448-3.223 1.344-.878.882-1.316 1.953-1.316 3.214v4.559Zm9.282 7.796c-1.392.881-2.973 1.322-4.743 1.322-2.512 0-4.653-.889-6.423-2.667-1.77-1.778-2.655-3.928-2.655-6.451v-4.559c0-2.522.885-4.672 2.655-6.45 1.77-1.778 3.911-2.667 6.423-2.667 1.77 0 3.351.44 4.743 1.322a2.35 2.35 0 0 1 .477-.661 2.157 2.157 0 0 1 1.588-.661c.621 0 1.15.228 1.589.684.454.44.681.972.681 1.595v18.235c0 .623-.227 1.163-.681 1.619-.439.44-.968.661-1.589.661-.62 0-1.15-.228-1.588-.684a2.073 2.073 0 0 1-.477-.638Zm-9.282-25.37a2.254 2.254 0 0 1-2.27-2.279c0-.623.219-1.155.658-1.596.454-.456 1.097-.836 1.929-1.14.848-.304 2.179-.076 3.995.684 1.543.623 2.564.745 3.064.365a2.729 2.729 0 0 1 1.702-.593c.62 0 1.15.228 1.588.684.454.441.681.973.681 1.596 0 .623-.227 1.162-.681 1.618-.438.441-1.119.851-2.042 1.231-.908.38-2.27.19-4.085-.57-1.695-.775-2.724-.965-3.087-.57-.348.38-.832.57-1.452.57ZM182.119 185.125c0-2.522.885-4.672 2.655-6.45 1.77-1.778 3.911-2.667 6.423-2.667 2.511 0 4.652.889 6.423 2.667 1.77 1.778 2.655 3.928 2.655 6.45v4.559c0 2.523-.885 4.673-2.655 6.451-1.771 1.778-3.912 2.667-6.423 2.667-2.512 0-4.653-.889-6.423-2.667-1.77-1.778-2.655-3.928-2.655-6.451v-4.559Zm13.617 0c0-1.261-.446-2.332-1.339-3.214-.878-.896-1.944-1.344-3.2-1.344-1.256 0-2.33.448-3.223 1.344-.877.882-1.316 1.953-1.316 3.214v4.559c0 1.261.439 2.34 1.316 3.237.893.881 1.967 1.322 3.223 1.322 1.256 0 2.322-.441 3.2-1.322.893-.897 1.339-1.976 1.339-3.237v-4.559Z" fill="#858A8D"/><path d="M105.835 168.777a2.259 2.259 0 0 1 1.022-1.413 2.24 2.24 0 0 1 1.725-.296c.59.152 1.051.501 1.384 1.048.333.532.431 1.102.295 1.71l-6.309 27.262a2.247 2.247 0 0 1-1.044 1.413 2.417 2.417 0 0 1-1.702.364h-.863c-.605.092-1.18-.03-1.725-.364a2.262 2.262 0 0 1-1.02-1.413l-6.31-27.262a2.201 2.201 0 0 1 .295-1.71c.333-.547.794-.896 1.384-1.048a2.175 2.175 0 0 1 1.702.296c.545.334.893.805 1.044 1.413l5.061 21.883 5.061-21.883ZM130.278 194.329c.621 0 1.15.228 1.589.684.454.441.681.973.681 1.596 0 .623-.227 1.162-.681 1.618a2.159 2.159 0 0 1-1.589.661h-13.617a2.254 2.254 0 0 1-2.269-2.279c0-.623.219-1.155.658-1.596.454-.456.991-.684 1.611-.684h4.539v-13.676h-4.539a2.254 2.254 0 0 1-2.269-2.279c0-.623.219-1.155.658-1.596.454-.456.991-.684 1.611-.684h6.809c.62 0 1.15.228 1.588.684.454.441.681.973.681 1.596v15.955h4.539Zm-5.22-26.669c.454.441.681.973.681 1.596 0 .623-.227 1.162-.681 1.618a2.157 2.157 0 0 1-1.588.661c-.621 0-1.158-.22-1.612-.661a2.258 2.258 0 0 1-.658-1.618c0-.623.22-1.155.658-1.596.454-.455.991-.683 1.612-.683.62 0 1.15.228 1.588.683ZM155.243 192.05c0 1.763-.885 3.343-2.655 4.741-1.77 1.398-4.29 2.097-7.558 2.097-2.965 0-5.333-.889-7.103-2.667l.022-.022c-.015 0-.03-.016-.045-.046a2.144 2.144 0 0 1-.681-1.596c0-.623.219-1.155.658-1.595.454-.456.991-.684 1.612-.684.62 0 1.157.22 1.611.661 0 .015.007.03.023.046.892.896 2.194 1.344 3.903 1.344 2.013 0 3.457-.25 4.335-.752.893-.516 1.339-1.026 1.339-1.527 0-.501-.333-1.003-.999-1.504-.65-.517-2.148-.775-4.493-.775-2.33 0-4.267-.699-5.81-2.097-1.543-1.398-2.315-2.979-2.315-4.742 0-1.762.885-3.343 2.655-4.741 1.77-1.398 4.29-2.097 7.558-2.097 2.965 0 5.333.889 7.103 2.667l-.022.023c.015 0 .037.007.068.023.439.456.658.995.658 1.618 0 .623-.227 1.163-.681 1.618a2.159 2.159 0 0 1-1.589.661c-.62 0-1.15-.227-1.588-.683-.015 0-.031-.008-.046-.023-.892-.897-2.194-1.345-3.903-1.345-2.013 0-3.465.258-4.358.775-.877.501-1.316 1.003-1.316 1.504 0 .502.325 1.011.976 1.528.666.501 2.163.752 4.493.752 2.346 0 4.29.699 5.833 2.097 1.543 1.398 2.315 2.978 2.315 4.741ZM164.321 189.771c0 1.261.439 2.34 1.317 3.236.892.882 1.966 1.322 3.222 1.322s2.323-.44 3.2-1.322c.893-.896 1.339-1.975 1.339-3.236v-4.559c0-1.261-.446-2.333-1.339-3.214-.877-.897-1.944-1.345-3.2-1.345-1.256 0-2.33.448-3.222 1.345-.878.881-1.317 1.953-1.317 3.214v4.559Zm9.283 7.795c-1.392.882-2.974 1.322-4.744 1.322-2.511 0-4.652-.889-6.423-2.667-1.77-1.778-2.655-3.928-2.655-6.45v-4.559c0-2.523.885-4.673 2.655-6.451 1.771-1.778 3.912-2.667 6.423-2.667 1.77 0 3.352.441 4.744 1.322.105-.228.264-.448.476-.661.439-.44.968-.661 1.589-.661.62 0 1.15.228 1.588.684.454.441.681.973.681 1.596v18.235c0 .623-.227 1.162-.681 1.618a2.157 2.157 0 0 1-1.588.661c-.621 0-1.15-.228-1.589-.684a2.042 2.042 0 0 1-.476-.638Zm-9.283-25.37a2.254 2.254 0 0 1-2.269-2.279c0-.623.219-1.155.658-1.596.454-.455 1.097-.835 1.929-1.139.847-.304 2.179-.076 3.994.684 1.544.623 2.565.744 3.064.364a2.732 2.732 0 0 1 1.702-.592c.621 0 1.15.228 1.589.683.454.441.681.973.681 1.596 0 .623-.227 1.162-.681 1.618-.439.441-1.12.851-2.043 1.231-.907.38-2.269.19-4.085-.57-1.694-.775-2.723-.965-3.086-.569-.348.379-.832.569-1.453.569ZM182.477 185.212c0-2.523.886-4.673 2.656-6.451 1.77-1.778 3.911-2.667 6.423-2.667 2.511 0 4.652.889 6.422 2.667 1.77 1.778 2.656 3.928 2.656 6.451v4.559c0 2.522-.886 4.672-2.656 6.45-1.77 1.778-3.911 2.667-6.422 2.667-2.512 0-4.653-.889-6.423-2.667-1.77-1.778-2.656-3.928-2.656-6.45v-4.559Zm13.618 0c0-1.261-.447-2.333-1.339-3.214-.878-.897-1.945-1.345-3.2-1.345-1.256 0-2.331.448-3.223 1.345-.878.881-1.317 1.953-1.317 3.214v4.559c0 1.261.439 2.34 1.317 3.236.892.882 1.967 1.322 3.223 1.322 1.255 0 2.322-.44 3.2-1.322.892-.896 1.339-1.975 1.339-3.236v-4.559Z" fill="#7E7E7E"/></svg>