<svg width="120" height="120" fill="none" xmlns="http://www.w3.org/2000/svg"><circle cx="60" cy="59.33" r="59.33" fill="#FAFAFA"/><g filter="url(#a)"><circle cx="60.593" cy="59.924" r="50.43" fill="#3B4AE2"/></g><g fill="#F1F8F9"><path d="M58.401 42.653c-5.653.483-11.059 2.755-15.684 6.589-2.796 2.302-5.067 4.964-7.38 8.633l-1.079 1.716.7 1.11c2.137 3.443 3.884 5.684 5.95 7.657 5.273 5.006 11.244 7.73 17.997 8.212 6.084.432 12.528-1.48 17.77-5.262 3.597-2.61 6.413-5.694 9.106-9.99l1.08-1.727-1.08-1.716c-3.083-4.882-6.3-8.233-10.524-10.936-5.026-3.217-11.152-4.779-16.856-4.286Zm4.06 4.317c7.41.637 14.307 5.026 18.911 12.035l.39.597-.452.688c-1.685 2.58-4.224 5.324-6.577 7.113-1.994 1.5-4.687 2.95-6.897 3.7-5.745 1.952-11.86 1.541-17.339-1.182-4.285-2.118-7.914-5.396-10.75-9.723l-.39-.596.451-.689c1.244-1.912 3.197-4.183 4.82-5.632 2.046-1.82 3.65-2.909 5.91-4.019 3.865-1.891 7.801-2.652 11.923-2.292Z"/><path d="M59.67 49.073c-2.416.236-4.615 1.264-6.403 3.011-2.354 2.282-3.464 5.314-3.186 8.665.215 2.538 1.315 4.861 3.186 6.67 2.292 2.24 5.272 3.289 8.49 3.011 2.476-.226 4.655-1.233 6.474-3.011 1.86-1.809 2.95-4.08 3.187-6.66a10.7 10.7 0 0 0-7.709-11.326c-.76-.216-1.172-.278-2.703-.411-.226-.021-.822 0-1.336.051Zm-2.035 3.659c.925.432 1.428 1.357 1.346 2.436-.195 2.425-3.535 3.052-4.563.853-.401-.874-.288-1.974.288-2.642.709-.842 1.952-1.12 2.929-.647Zm-1.408 7.215c2.456 1.08 2.867 1.192 4.522 1.192 1.655 0 2.066-.113 4.522-1.192.884-.39 1.83-.74 2.087-.77.431-.063.503-.042.78.236.37.37.474.945.391 2.148-.154 2.21-1.367 4.1-3.299 5.19-1.973 1.1-4.645 1.387-7.102.76-.904-.226-2.395-1.007-3.063-1.603-1.192-1.058-1.983-2.693-2.096-4.347-.083-1.203.02-1.779.39-2.148.278-.278.35-.298.781-.237.257.031 1.203.38 2.087.771Z"/></g><defs><filter id="a" x="5.417" y="9.494" width="110.353" height="110.353" filterUnits="userSpaceOnUse" color-interpolation-filters="sRGB"><feFlood flood-opacity="0" result="BackgroundImageFix"/><feColorMatrix in="SourceAlpha" values="0 0 0 0 0 0 0 0 0 0 0 0 0 0 0 0 0 0 127 0" result="hardAlpha"/><feOffset dy="4.746"/><feGaussianBlur stdDeviation="2.373"/><feComposite in2="hardAlpha" operator="out"/><feColorMatrix values="0 0 0 0 0 0 0 0 0 0 0 0 0 0 0 0 0 0 0.25 0"/><feBlend in2="BackgroundImageFix" result="effect1_dropShadow_41_334"/><feBlend in="SourceGraphic" in2="effect1_dropShadow_41_334" result="shape"/><feColorMatrix in="SourceAlpha" values="0 0 0 0 0 0 0 0 0 0 0 0 0 0 0 0 0 0 127 0" result="hardAlpha"/><feMorphology radius="1.187" in="SourceAlpha" result="effect2_innerShadow_41_334"/><feOffset/><feGaussianBlur stdDeviation="4.746"/><feComposite in2="hardAlpha" operator="arithmetic" k2="-1" k3="1"/><feColorMatrix values="0 0 0 0 0 0 0 0 0 0 0 0 0 0 0 0 0 0 0.25 0"/><feBlend in2="shape" result="effect2_innerShadow_41_334"/></filter></defs></svg>