<svg width="42" height="43" fill="none" xmlns="http://www.w3.org/2000/svg"><g fill="#3B4AE2"><path d="M39.64.864c-.928.337-2.422 1.404-3.291 2.356-.6.648-1.297 1.6-1.814 2.462-.238.402-.443.739-.452.755-.016.017-.541-.468-1.165-1.075-1.223-1.182-1.748-1.527-2.594-1.707-.295-.058-1.723-.082-4.407-.066-3.85.025-3.989.033-4.506.205-1.198.41-.993.222-10.998 10.186-5.507 5.474-9.537 9.553-9.7 9.808-.526.804-.666 1.239-.707 2.248-.04 1.06.115 1.74.575 2.463.418.648 13.058 13.32 13.616 13.64.985.567 2.405.755 3.447.452 1.165-.345.73.057 11.039-10.243 10.53-10.53 9.947-9.89 10.292-11.26.156-.591.164-.92.164-4.547 0-5.073.05-4.884-1.79-6.747-.615-.624-1.099-1.14-1.074-1.157.016-.017.27-.173.566-.345 2.216-1.305 3.989-3.07 4.818-4.793.254-.525.303-.73.336-1.28.033-.747-.098-1.067-.574-1.355-.361-.213-1.174-.213-1.781 0Zm.804 1.535c-.32.854-1.256 2.134-2.142 2.938-.525.468-1.486 1.158-2.462 1.749l-.55.336.336-.55c1.076-1.773 1.946-2.807 3.045-3.636.517-.394 1.675-1.058 1.839-1.058.008 0-.017.098-.066.221ZM30.39 5.272c.28.131.771.558 1.625 1.403l1.231 1.215-.246.492c-.164.32-.509.739-1.026 1.256l-.78.763-.394-.147c-.279-.107-.615-.156-1.1-.156-.59 0-.77.032-1.206.238-.886.402-1.485 1.19-1.666 2.166-.172.944.123 1.872.82 2.561 1.453 1.461 3.858 1.018 4.736-.862.197-.418.23-.599.23-1.19 0-.484-.049-.82-.156-1.1l-.148-.393.764-.78c.509-.517.936-.862 1.256-1.026l.484-.246 1.182 1.182c.853.845 1.239 1.296 1.403 1.625l.222.451v3.817c0 4.21 0 4.243-.542 5.088-.123.205-4.473 4.604-9.652 9.775-10.563 10.547-9.717 9.792-10.981 9.792-1.256 0-.805.377-8.027-6.87-7.223-7.255-6.903-6.878-6.91-8.1 0-1.232-.657-.501 9.947-11.089 8.905-8.897 9.454-9.422 9.98-9.668a4.433 4.433 0 0 1 1.067-.337c.279-.033 2.076-.057 3.997-.057 3.43.016 3.496.016 3.89.197Zm-.92 6.87c-.442.459-.508.566-.508.845.008.484.312.763.82.763.206 0 .37-.107.789-.509l.525-.5v.311c0 .821-.837 1.478-1.69 1.322-.395-.082-.986-.673-1.06-1.067-.164-.837.501-1.69 1.305-1.69h.32l-.5.524Z"/><path d="m24.514 17.172-1.289 1.289-.845-.82c-.944-.92-1.412-1.19-2.364-1.396-2.339-.492-4.71 1.092-5.211 3.472-.148.706-.148 1.067 0 1.789.197.911.476 1.387 1.387 2.323l.82.845-2.002 2.003-2.003 2.01-1.617-1.6-1.608-1.6h-.378c-.312 0-.402.04-.583.254-.435.509-.394.583 1.428 2.413l1.642 1.641-1.19 1.19c-.887.887-1.198 1.256-1.24 1.445a.75.75 0 0 0 1.051.829c.148-.066.772-.624 1.37-1.24l1.109-1.107.82.796c.912.878 1.396 1.182 2.192 1.37 2.659.624 5.277-1.296 5.466-4.021.098-1.445-.296-2.38-1.494-3.57l-.78-.78 2.028-2.027 2.027-2.028 1.477 1.502c.821.83 1.584 1.568 1.707 1.65.493.312 1.133-.082 1.133-.681 0-.271-.123-.419-1.617-1.92l-1.617-1.626 1.289-1.297c1.256-1.264 1.288-1.313 1.288-1.65 0-.475-.27-.746-.746-.746-.337 0-.386.033-1.65 1.288Zm-4.202.788c.221.115.73.517 1.116.903l.706.69-2.027 2.027-2.028 2.027-.706-.73c-.91-.96-1.083-1.322-1.091-2.233 0-.582.033-.771.213-1.157a3.166 3.166 0 0 1 1.904-1.682c.526-.173 1.404-.107 1.913.155ZM18.9 26.562c.886.944 1.067 1.362 1.018 2.33-.033.51-.09.756-.263 1.092a3.4 3.4 0 0 1-1.379 1.387c-.386.205-.525.23-1.214.23-1.018 0-1.322-.148-2.25-1.091l-.705-.715 1.986-1.986c1.1-1.1 2.02-1.994 2.044-1.994.033 0 .377.336.763.747Z"/></g></svg>