<svg width="42" height="44" fill="none" xmlns="http://www.w3.org/2000/svg"><g fill="#3B4AE2"><path d="M7.279.676c-.819.35-1.072 1.033-1.072 2.845 0 1.363.058 1.597.507 2.123.662.799 1.792.857 2.513.117.448-.428.487-.623.487-2.318 0-1.637-.059-1.91-.429-2.338C8.72.48 8.038.345 7.28.676ZM24.56.696c-.8.35-1.014.935-1.014 2.747 0 2.084.448 2.786 1.812 2.805.526 0 .877-.136 1.208-.487.448-.429.487-.623.487-2.24 0-1.988-.136-2.397-.974-2.825-.682-.351-.701-.351-1.52 0Z"/><path d="M1.025 3.599c-.332.155-.702.506-.819.818-.175.428-.233 4.189-.194 15.04L.07 33.952l.545.468.546.468H19.708l-.136-.74c-.058-.39-.117-.877-.117-1.072 0-.312-.545-.331-8.67-.331h-8.67V9.365l14.574.04 14.553.058v5.806c0 5.766 0 5.786.41 5.786.233 0 .7.058 1.032.117l.604.117V4.514l-.468-.545c-.448-.526-.545-.546-2.63-.604l-2.163-.078v.838c0 1.09-.506 2.104-1.344 2.65-1.792 1.207-4.11-.274-4.11-2.63v-.82H10.687v.936c0 1.695-1.15 2.961-2.689 2.961-1.46 0-2.493-1.052-2.688-2.805l-.137-1.091H3.402c-1.033.02-2.027.117-2.377.273Z"/><path d="M5.233 15.015v1.754H8.74V13.262H5.233v1.753ZM11.467 15.015v1.754H14.974V13.262H11.467v1.753ZM17.702 15.015v1.754h3.604V13.262h-3.604v1.753ZM24.13 15.015v1.754h3.508V13.262H24.13v1.753ZM5.233 21.055v1.753H8.74v-3.506H5.233v1.753ZM11.467 21.055v1.753H14.974v-3.506H11.467v1.753ZM17.838 19.438c-.078.058-.136.857-.136 1.753v1.617H21.209v-3.506h-1.617c-.897 0-1.695.058-1.754.136ZM28.67 22.302c-2.474.604-5.143 2.513-6.507 4.617-3.877 6.06-.78 14.262 6.157 16.268 1.811.507 4.52.448 6.292-.175 7.638-2.65 9.878-12.08 4.228-17.788-2.688-2.688-6.546-3.799-10.17-2.922Zm4.91 1.91c1.948.486 4.286 2.26 5.3 4.013 2.045 3.487 1.46 8.026-1.384 10.832-4.072 4.033-10.657 3.312-13.755-1.48-1.032-1.579-1.442-3.215-1.325-5.378.078-1.54.176-1.948.8-3.195.915-1.87 2.318-3.273 4.11-4.15 2.085-1.032 3.994-1.227 6.254-.643Z"/><path d="M33.19 31.77 29.1 35.862l-2.182-2.182-2.202-2.202v4.111l1.93 1.89c1.519 1.5 2.025 1.89 2.473 1.89.449 0 1.208-.663 4.404-3.858l3.877-3.838-.059-2.007-.058-1.987-4.092 4.091ZM5.233 27.29v1.753H8.74V25.536H5.233v1.753ZM11.506 27.231l.059 1.714 1.714.059 1.695.058v-3.526h-3.526l.058 1.695Z"/></g></svg>