<svg width="42" height="38" fill="none" xmlns="http://www.w3.org/2000/svg"><g fill="#3B4AE2"><path d="M7.372 1.214c-1.97.863-3.342 3.099-3.121 5.157.133 1.196.885 2.834 1.417 3.033.952.376 1.372-.62.708-1.726-.885-1.506-.332-3.764 1.129-4.627 1.107-.664 2.08-.686 3.409-.089 1.107.51 1.262.532 1.572.244.442-.443.42-.819-.067-1.262-1.085-.974-3.608-1.35-5.047-.73ZM31.19 1.258c-.995.42-1.549.952-1.549 1.439 0 .752.642.841 1.926.265 1.417-.664 2.59-.553 3.63.31 1.35 1.151 1.727 3.033.864 4.45-.554.907-.554 1.306.022 1.616.664.354 1.46-.465 1.881-1.948.753-2.635-.664-5.38-3.21-6.243-1.04-.332-2.634-.288-3.563.11Z"/><path d="M18.905 1.922C12.154 3.03 6.708 7.9 5.048 14.385c-.31 1.195-.443 2.39-.42 4.117 0 2.678.22 3.962.752 4.516.553.553 1.151.044 1.063-.886-.023-.42-.089-2.058-.111-3.63-.022-2.7 0-2.988.642-4.781 1.616-4.56 5.268-8.146 9.718-9.563 1.306-.399 2.058-.487 4.648-.487 2.79 0 3.254.066 4.715.598 2.347.84 3.918 1.837 5.69 3.608 1.814 1.815 2.988 3.74 3.807 6.198.797 2.48.84 6.087.088 8.522-1.372 4.472-4.626 8.19-8.544 9.829-2.369.996-3.122 1.062-13.481 1.15-5.468.067-10.028.156-10.117.222-.287.177-.243.841.067 1.151.42.42 18.727.377 20.852-.066 6.619-1.373 11.688-6.42 13.127-13.06.487-2.258.288-6.11-.443-8.346C34.931 6.747 28.89 2.121 21.916 1.9c-1.284-.044-2.634-.022-3.01.022Z"/><path d="M19.635 4.689c-5.268.576-9.607 4.007-11.532 9.142-.62 1.638-.687 2.037-.687 4.56-.022 2.148.067 3.033.399 3.985 1.682 4.936 5.379 8.478 10.072 9.651 2.169.532 5.844.354 7.99-.42 3.188-1.13 6.066-3.609 7.616-6.575 1.195-2.28 1.55-3.763 1.55-6.53 0-2.767-.355-4.228-1.55-6.552-1.97-3.763-6.176-6.73-10.16-7.172a74.403 74.403 0 0 1-1.661-.2c-.31-.022-1.218.022-2.037.111Zm4.361 1.86c2.302.597 4.073 1.593 5.778 3.298 2.501 2.479 3.63 5.202 3.63 8.655 0 3.453-1.129 6.176-3.63 8.655-2.612 2.59-5.91 3.83-9.43 3.564-3.188-.243-5.866-1.572-8.168-4.029-5.49-5.888-3.72-15.495 3.586-19.17 2.479-1.261 5.644-1.638 8.234-.974Z"/><path d="M20.366 7.301c-.133.244-.243 1.328-.243 2.435 0 2.015.243 2.679.973 2.679.665 0 .82-.62.753-3.01l-.066-2.414-.598-.066c-.398-.044-.664.066-.819.376Z"/><path d="M15.253 11.418c-.155.178-.222.487-.133.665.066.199 1.195 1.726 2.479 3.43l2.346 3.077-.686.598c-.775.642-.841 1.306-.199 1.705.266.177.531.11 1.129-.355l.775-.597.575.664c.598.73 1.55.885 1.771.288.089-.2-.088-.687-.398-1.174l-.554-.84 2.413-1.838c2.48-1.904 2.723-2.17 2.524-2.745-.332-.841-.974-.598-3.432 1.328-1.328 1.04-2.523 1.838-2.611 1.771-.111-.044-1.262-1.505-2.568-3.21-2.369-3.077-2.856-3.475-3.431-2.767ZM9.74 18.037c-.154.177-.22.532-.132.797.133.42.31.443 2.678.443 2.148 0 2.568-.067 2.679-.354.066-.2.044-.532-.089-.73-.332-.51-4.737-.643-5.135-.156ZM27.693 17.927c-.177.088-.266.42-.221.708.066.531.088.531 2.59.531 2.103 0 2.567-.066 2.744-.376.178-.266.156-.465-.044-.709-.243-.287-.752-.354-2.545-.354-1.218 0-2.369.089-2.524.2ZM20.366 24.567c-.133.244-.243 1.417-.243 2.612 0 2.435.22 3.033 1.128 2.9l.532-.066v-5.756l-.598-.066c-.398-.044-.664.066-.819.376ZM1.152 25.165c-.066.2-.044.531.089.73.199.288.708.355 3.165.355s2.966-.067 3.165-.354c.133-.2.155-.532.089-.73-.11-.31-.576-.355-3.254-.355s-3.143.044-3.254.354ZM.067 29.548c-.066.177-.088.51-.044.73.066.377.443.399 5.047.465 4.427.045 5.003.023 5.246-.31.2-.265.2-.487.045-.774-.2-.399-.576-.42-5.202-.42-4.118 0-5.003.043-5.092.309ZM36.858 31.208c-.487.554-.266 1.019.797 1.616l.885.51-4.161.11-4.184.11V34.884l4.206.11 4.206.111-.842.51c-.996.641-1.306 1.128-1.018 1.66.354.62.863.442 3.144-1.085 1.77-1.173 2.169-1.528 2.102-1.926-.044-.332-.752-.952-2.28-1.992-1.195-.82-2.258-1.483-2.324-1.483-.089 0-.31.177-.531.42Z"/></g></svg>