<svg width="42" height="29" fill="none" xmlns="http://www.w3.org/2000/svg"><g fill="#3B4AE2"><path d="M20.211.906c-1.127.32-2.263 1.26-2.742 2.29-.781 1.677-.462 3.532.825 4.81.932.94 2.015 1.358 3.301 1.269 3.08-.195 4.926-3.55 3.453-6.283-.329-.595-1.1-1.385-1.686-1.696-.906-.488-2.21-.647-3.151-.39ZM6.624 4.81c-1.198.427-1.961 1.332-2.192 2.583-.258 1.385.532 2.876 1.837 3.488.435.204.621.24 1.349.24s.914-.036 1.349-.24c2.644-1.233 2.52-4.987-.196-6.026-.523-.195-1.641-.222-2.147-.044ZM33.487 4.81a3.19 3.19 0 0 0-1.49.933c-.658.7-.817 1.118-.817 2.183 0 .825.017.932.293 1.482.346.701.816 1.154 1.606 1.517.506.24.683.276 1.313.276.675 0 .781-.027 1.42-.355.808-.409 1.323-.977 1.624-1.784.276-.737.222-1.82-.124-2.512-.719-1.437-2.387-2.192-3.825-1.74Z"/><path d="M17.682 9.417c-2.352.958-4.216 2.715-5.28 4.987-.196.409-.347.772-.347.817 0 .053.178.062.47.018 3.666-.56 10.402-.835 13.33-.542 1.358.133 3.648.426 4.269.542.24.044.453.07.47.053.018-.027-.168-.453-.417-.967-1.153-2.361-3.212-4.216-5.582-5.032l-.48-.16-.345.213c-.692.435-1.385.612-2.44.612-1.075.009-1.58-.115-2.415-.577a8.886 8.886 0 0 0-.488-.257 14.8 14.8 0 0 0-.745.293ZM4.645 11.493C2.089 12.63.42 14.875.065 17.654c-.062.434-.08.816-.053.843.027.026.701-.204 1.5-.524 2.556-1.02 5.538-1.873 8.52-2.44l1.233-.24.293-.719c.16-.4.435-.976.612-1.278.178-.302.329-.577.329-.621 0-.195-1.536-1.1-2.246-1.331-.32-.098-.39-.09-.967.177-1.083.497-2.556.462-3.514-.098-.382-.221-.488-.213-1.127.071ZM31.402 11.511c-.533.231-1.509.781-1.509.852 0 .018.195.355.435.755.24.39.559 1.02.719 1.402.364.914.381.95.63.976.115.018.932.186 1.81.382 2.725.603 5.405 1.42 7.384 2.263.506.213.967.39 1.03.39.292 0-.107-2.085-.604-3.16-.4-.878-.94-1.623-1.695-2.351-.728-.692-1.349-1.11-2.254-1.491l-.657-.284-.586.266a4.02 4.02 0 0 1-3.452.01c-.31-.152-.586-.267-.621-.267-.027.009-.31.115-.63.257Z"/><path d="m20.211 17.27-.763 2.104-2.414-.009c-1.322-.009-2.396 0-2.387.01 1.25 1.029 3.674 3.105 3.691 3.159.018.044-.257 1.073-.603 2.298-.355 1.234-.621 2.245-.604 2.263.018.018.835-.523 1.802-1.207.976-.683 1.846-1.287 1.935-1.331.124-.071.514.16 2.085 1.251 1.056.728 1.935 1.305 1.944 1.27.009-.045-.275-1.074-.63-2.29l-.648-2.219 2.165-1.429 2.175-1.429-.657-.062c-.355-.026-1.553-.07-2.654-.106l-2.005-.062-.79-2.157c-.435-1.19-.808-2.165-.834-2.165-.027 0-.39.95-.808 2.112ZM11.026 19.995c-.045.098-.258.675-.48 1.287l-.408 1.11-1.438-.018c-.79-.01-1.437-.01-1.437 0 0 .018.497.444 1.109.95.612.505 1.11.967 1.11 1.02 0 .044-.178.674-.391 1.393-.204.728-.364 1.314-.346 1.314.018 0 .55-.364 1.18-.808l1.154-.807 1.153.807c.63.444 1.163.808 1.19.808.018 0-.142-.604-.355-1.34-.213-.737-.373-1.367-.355-1.402.026-.036.612-.444 1.304-.906l1.26-.834-1.57-.062c-.87-.036-1.598-.08-1.624-.098a44.19 44.19 0 0 1-.515-1.322c-.364-.985-.488-1.234-.541-1.092Z"/><path d="m29.716 21.806-.48 1.331-1.42-.053c-1.277-.045-1.41-.036-1.295.088.07.072.577.506 1.11.959.54.453.975.86.966.914a39.82 39.82 0 0 1-.381 1.376c-.204.692-.364 1.278-.346 1.295.017.01.523-.328 1.136-.763.612-.435 1.153-.78 1.198-.78.053 0 .585.354 1.198.78.612.435 1.118.772 1.136.763.018-.017-.151-.63-.373-1.366l-.39-1.35 1.286-.86 1.296-.861-.879-.053a37.212 37.212 0 0 0-1.588-.071l-.71-.01-.48-1.33c-.257-.737-.479-1.332-.487-1.332-.01 0-.231.595-.497 1.323ZM4.29 24.016l-.275.772h-1.82l.249.222c.142.124.461.399.71.62l.461.4-.257.843c-.142.462-.266.852-.266.87 0 .018.32-.186.71-.461.39-.276.745-.497.798-.497.045 0 .355.195.684.426.79.559.834.585.78.443-.017-.062-.124-.408-.221-.772-.107-.355-.213-.7-.23-.763-.028-.071.283-.32.771-.63l.826-.524-1.012-.088-1.012-.09-.275-.771c-.142-.435-.284-.781-.31-.781-.027 0-.17.346-.311.78ZM35.928 23.962c0 .063-.115.418-.249.781l-.248.666-.87.044-.878.045.674.559.675.55-.134.444c-.07.248-.186.648-.257.887l-.124.453.71-.497c.39-.266.745-.488.79-.488.044 0 .408.23.807.506.4.275.71.443.684.364-.036-.072-.142-.435-.249-.79-.098-.364-.204-.701-.222-.764-.017-.062.329-.337.781-.62l.817-.515-1.012-.09-1.012-.088-.275-.772c-.248-.71-.408-.968-.408-.675Z"/></g></svg>