<svg width="1036" height="538" viewBox="0 0 1036 538" fill="none" xmlns="http://www.w3.org/2000/svg">
<path d="M144.104 1.20921V56.1998C144.104 56.1998 187.815 67.4791 187.815 27.9987C187.815 -8.66112 144.104 1.20921 144.104 1.20921Z" fill="#8AECC3"/>
<path d="M31.3226 299.504H12.9924V63.4511C12.9924 28.4831 41.1927 19.7405 55.2929 19.7402H130.024V38.0709C114.043 37.6009 76.7251 36.9429 55.2929 38.0709C33.8606 39.1989 30.3826 55.461 31.3226 63.4511V299.504Z" fill="#F1F8F9"/>
<path d="M889.04 1.20921V56.1998C889.04 56.1998 845.33 67.4791 845.33 27.9987C845.33 -8.66112 889.04 1.20921 889.04 1.20921Z" fill="#8AECC3"/>
<path d="M1001.82 299.504H1020.15V63.4511C1020.15 28.4831 991.952 19.7405 977.852 19.7402H903.121V38.0709C919.101 37.6009 956.42 36.9429 977.852 38.0709C999.284 39.1989 1002.76 55.461 1001.82 63.4511V299.504Z" fill="#F1F8F9"/>
<path d="M125.77 160.74H101.471V85.6799H126.54C133.895 85.6799 140.211 87.1825 145.488 90.1879C150.766 93.1688 154.81 97.4569 157.62 103.052C160.454 108.623 161.871 115.306 161.871 123.1C161.871 130.919 160.442 137.638 157.583 143.258C154.749 148.877 150.644 153.202 145.268 156.232C139.893 159.237 133.394 160.74 125.77 160.74ZM112.796 150.844H125.147C130.865 150.844 135.617 149.769 139.404 147.619C143.192 145.445 146.026 142.305 147.907 138.2C149.789 134.071 150.729 129.037 150.729 123.1C150.729 117.211 149.789 112.215 147.907 108.11C146.05 104.005 143.277 100.89 139.588 98.7641C135.898 96.6383 131.317 95.5755 125.844 95.5755H112.796V150.844ZM198.787 161.876C193.51 161.876 188.904 160.667 184.97 158.248C181.036 155.829 177.982 152.445 175.807 148.096C173.633 143.746 172.545 138.664 172.545 132.849C172.545 127.009 173.633 121.903 175.807 117.529C177.982 113.155 181.036 109.759 184.97 107.34C188.904 104.921 193.51 103.712 198.787 103.712C204.065 103.712 208.671 104.921 212.604 107.34C216.538 109.759 219.592 113.155 221.767 117.529C223.942 121.903 225.029 127.009 225.029 132.849C225.029 138.664 223.942 143.746 221.767 148.096C219.592 152.445 216.538 155.829 212.604 158.248C208.671 160.667 204.065 161.876 198.787 161.876ZM198.824 152.677C202.245 152.677 205.079 151.773 207.327 149.965C209.575 148.157 211.236 145.75 212.311 142.745C213.411 139.739 213.961 136.429 213.961 132.812C213.961 129.221 213.411 125.922 212.311 122.917C211.236 119.887 209.575 117.456 207.327 115.623C205.079 113.791 202.245 112.874 198.824 112.874C195.379 112.874 192.52 113.791 190.248 115.623C188 117.456 186.326 119.887 185.227 122.917C184.151 125.922 183.614 129.221 183.614 132.812C183.614 136.429 184.151 139.739 185.227 142.745C186.326 145.75 188 148.157 190.248 149.965C192.52 151.773 195.379 152.677 198.824 152.677ZM272.922 137.394V104.445H283.917V160.74H273.142V150.991H272.555C271.26 153.996 269.184 156.501 266.325 158.504C263.491 160.483 259.96 161.473 255.733 161.473C252.117 161.473 248.916 160.679 246.13 159.091C243.369 157.478 241.195 155.096 239.607 151.944C238.043 148.792 237.261 144.895 237.261 140.252V104.445H248.22V138.933C248.22 142.769 249.282 145.823 251.408 148.096C253.534 150.368 256.295 151.504 259.691 151.504C261.744 151.504 263.784 150.991 265.812 149.965C267.864 148.939 269.562 147.387 270.906 145.31C272.274 143.233 272.946 140.594 272.922 137.394ZM324.92 104.445V113.241H294.17V104.445H324.92ZM302.416 90.9575H313.375V144.211C313.375 146.336 313.693 147.937 314.328 149.012C314.963 150.062 315.782 150.783 316.783 151.174C317.81 151.541 318.921 151.724 320.119 151.724C320.998 151.724 321.768 151.663 322.428 151.541C323.087 151.419 323.6 151.321 323.967 151.248L325.946 160.3C325.311 160.545 324.407 160.789 323.234 161.033C322.061 161.302 320.595 161.449 318.836 161.473C315.953 161.522 313.265 161.009 310.773 159.934C308.28 158.859 306.265 157.197 304.725 154.949C303.186 152.701 302.416 149.879 302.416 146.483V90.9575ZM360.15 161.876C354.872 161.876 350.267 160.667 346.333 158.248C342.399 155.829 339.345 152.445 337.17 148.096C334.996 143.746 333.908 138.664 333.908 132.849C333.908 127.009 334.996 121.903 337.17 117.529C339.345 113.155 342.399 109.759 346.333 107.34C350.267 104.921 354.872 103.712 360.15 103.712C365.428 103.712 370.033 104.921 373.967 107.34C377.901 109.759 380.955 113.155 383.13 117.529C385.304 121.903 386.392 127.009 386.392 132.849C386.392 138.664 385.304 143.746 383.13 148.096C380.955 152.445 377.901 155.829 373.967 158.248C370.033 160.667 365.428 161.876 360.15 161.876ZM360.187 152.677C363.607 152.677 366.442 151.773 368.69 149.965C370.937 148.157 372.599 145.75 373.674 142.745C374.774 139.739 375.323 136.429 375.323 132.812C375.323 129.221 374.774 125.922 373.674 122.917C372.599 119.887 370.937 117.456 368.69 115.623C366.442 113.791 363.607 112.874 360.187 112.874C356.742 112.874 353.883 113.791 351.61 115.623C349.363 117.456 347.689 119.887 346.589 122.917C345.514 125.922 344.977 129.221 344.977 132.812C344.977 136.429 345.514 139.739 346.589 142.745C347.689 145.75 349.363 148.157 351.61 149.965C353.883 151.773 356.742 152.677 360.187 152.677ZM398.624 160.74V104.445H409.216V113.388H409.802C410.828 110.358 412.637 107.976 415.226 106.241C417.841 104.482 420.797 103.602 424.096 103.602C424.78 103.602 425.586 103.626 426.515 103.675C427.468 103.724 428.213 103.785 428.75 103.858V114.341C428.311 114.218 427.529 114.084 426.405 113.937C425.281 113.766 424.157 113.681 423.033 113.681C420.443 113.681 418.134 114.231 416.106 115.33C414.103 116.405 412.514 117.908 411.342 119.838C410.169 121.744 409.582 123.918 409.582 126.362V160.74H398.624Z" fill="#F1F8F9"/>
<path d="M102.558 298.737V195.914H147.141C154.973 195.914 161.55 196.969 166.872 199.077C172.227 201.186 176.261 204.165 178.972 208.014C181.716 211.863 183.089 216.399 183.089 221.62C183.089 225.402 182.252 228.85 180.578 231.962C178.938 235.075 176.629 237.686 173.65 239.795C170.671 241.87 167.19 243.309 163.207 244.112V245.116C167.625 245.284 171.642 246.405 175.257 248.48C178.871 250.522 181.75 253.35 183.892 256.965C186.034 260.546 187.105 264.764 187.105 269.617C187.105 275.24 185.632 280.244 182.687 284.629C179.775 289.013 175.625 292.461 170.236 294.971C164.847 297.481 158.421 298.737 150.957 298.737H102.558ZM130.473 276.445H143.526C148.212 276.445 151.727 275.575 154.07 273.834C156.413 272.06 157.584 269.45 157.584 266.002C157.584 263.592 157.032 261.551 155.927 259.877C154.823 258.204 153.25 256.932 151.208 256.061C149.2 255.191 146.773 254.756 143.928 254.756H130.473V276.445ZM130.473 237.485H141.92C144.363 237.485 146.522 237.1 148.396 236.33C150.271 235.561 151.727 234.456 152.764 233.017C153.835 231.544 154.371 229.753 154.371 227.645C154.371 224.465 153.233 222.038 150.957 220.365C148.681 218.658 145.802 217.804 142.321 217.804H130.473V237.485ZM296.605 247.326C296.605 258.773 294.379 268.429 289.927 276.294C285.476 284.127 279.468 290.068 271.903 294.118C264.339 298.134 255.904 300.142 246.599 300.142C237.228 300.142 228.76 298.117 221.195 294.067C213.664 289.984 207.673 284.026 203.221 276.194C198.803 268.328 196.594 258.706 196.594 247.326C196.594 235.879 198.803 226.239 203.221 218.407C207.673 210.541 213.664 204.6 221.195 200.584C228.76 196.534 237.228 194.509 246.599 194.509C255.904 194.509 264.339 196.534 271.903 200.584C279.468 204.6 285.476 210.541 289.927 218.407C294.379 226.239 296.605 235.879 296.605 247.326ZM267.887 247.326C267.887 241.167 267.067 235.979 265.427 231.762C263.82 227.511 261.427 224.298 258.247 222.122C255.101 219.913 251.218 218.808 246.599 218.808C241.98 218.808 238.081 219.913 234.901 222.122C231.755 224.298 229.362 227.511 227.722 231.762C226.115 235.979 225.312 241.167 225.312 247.326C225.312 253.484 226.115 258.689 227.722 262.94C229.362 267.157 231.755 270.37 234.901 272.579C238.081 274.755 241.98 275.843 246.599 275.843C251.218 275.843 255.101 274.755 258.247 272.579C261.427 270.37 263.82 267.157 265.427 262.94C267.067 258.689 267.887 253.484 267.887 247.326ZM309.52 195.914H344.263L368.161 254.154H369.366L393.264 195.914H428.007V298.737H400.694V239.293H399.891L376.997 297.933H360.53L337.636 238.891H336.832V298.737H309.52V195.914ZM537.23 234.473H508.914C508.713 232.13 508.177 230.004 507.307 228.097C506.47 226.189 505.299 224.549 503.793 223.176C502.32 221.771 500.529 220.7 498.421 219.963C496.312 219.193 493.919 218.808 491.241 218.808C486.555 218.808 482.589 219.946 479.342 222.222C476.129 224.498 473.686 227.762 472.012 232.013C470.372 236.263 469.552 241.368 469.552 247.326C469.552 253.618 470.389 258.89 472.062 263.14C473.769 267.358 476.23 270.537 479.443 272.68C482.656 274.788 486.522 275.843 491.04 275.843C493.618 275.843 495.927 275.525 497.969 274.889C500.011 274.219 501.784 273.265 503.291 272.027C504.797 270.789 506.019 269.299 506.956 267.559C507.926 265.785 508.579 263.793 508.914 261.584L537.23 261.785C536.895 266.136 535.674 270.571 533.565 275.089C531.456 279.575 528.461 283.725 524.578 287.541C520.729 291.323 515.959 294.369 510.269 296.678C504.579 298.988 497.969 300.142 490.438 300.142C480.999 300.142 472.531 298.117 465.034 294.067C457.57 290.017 451.662 284.06 447.311 276.194C442.993 268.328 440.834 258.706 440.834 247.326C440.834 235.879 443.043 226.239 447.461 218.407C451.88 210.541 457.837 204.6 465.335 200.584C472.832 196.534 481.2 194.509 490.438 194.509C496.931 194.509 502.906 195.396 508.361 197.17C513.817 198.944 518.604 201.538 522.72 204.952C526.837 208.332 530.151 212.499 532.661 217.453C535.172 222.407 536.694 228.08 537.23 234.473ZM610.744 195.914H638.659V261.785C638.659 269.617 636.784 276.395 633.036 282.118C629.32 287.808 624.133 292.21 617.472 295.323C610.811 298.402 603.079 299.942 594.277 299.942C585.407 299.942 577.642 298.402 570.981 295.323C564.32 292.21 559.132 287.808 555.417 282.118C551.735 276.395 549.894 269.617 549.894 261.785V195.914H577.809V259.375C577.809 262.555 578.512 265.4 579.918 267.91C581.323 270.387 583.265 272.328 585.742 273.734C588.252 275.14 591.097 275.843 594.277 275.843C597.49 275.843 600.335 275.14 602.812 273.734C605.289 272.328 607.23 270.387 608.636 267.91C610.041 265.4 610.744 262.555 610.744 259.375V195.914ZM707.353 228.046C707.086 224.699 705.83 222.089 703.588 220.214C701.379 218.34 698.015 217.403 693.496 217.403C690.618 217.403 688.258 217.754 686.417 218.457C684.61 219.126 683.271 220.047 682.401 221.218C681.531 222.39 681.079 223.729 681.045 225.235C680.978 226.473 681.196 227.595 681.698 228.599C682.234 229.569 683.07 230.456 684.208 231.26C685.346 232.029 686.802 232.732 688.576 233.368C690.35 234.004 692.459 234.573 694.902 235.075L703.337 236.883C709.027 238.088 713.897 239.677 717.947 241.652C721.997 243.627 725.31 245.953 727.888 248.631C730.465 251.275 732.356 254.254 733.561 257.568C734.799 260.881 735.435 264.496 735.469 268.412C735.435 275.173 733.745 280.897 730.398 285.583C727.051 290.268 722.265 293.833 716.039 296.276C709.847 298.72 702.4 299.942 693.697 299.942C684.761 299.942 676.962 298.619 670.301 295.975C663.674 293.331 658.52 289.264 654.838 283.775C651.189 278.252 649.349 271.19 649.315 262.588H675.824C675.991 265.734 676.778 268.379 678.184 270.521C679.589 272.663 681.564 274.286 684.108 275.391C686.685 276.495 689.748 277.048 693.296 277.048C696.275 277.048 698.768 276.679 700.776 275.943C702.785 275.207 704.307 274.186 705.345 272.88C706.383 271.575 706.918 270.086 706.952 268.412C706.918 266.839 706.399 265.467 705.395 264.295C704.425 263.09 702.818 262.019 700.575 261.082C698.333 260.111 695.304 259.208 691.488 258.371L681.246 256.162C672.142 254.187 664.963 250.89 659.708 246.271C654.486 241.619 651.892 235.276 651.926 227.243C651.892 220.716 653.633 215.01 657.147 210.123C660.695 205.203 665.599 201.37 671.858 198.626C678.15 195.881 685.363 194.509 693.496 194.509C701.797 194.509 708.977 195.898 715.035 198.676C721.093 201.454 725.762 205.37 729.042 210.424C732.356 215.445 734.029 221.319 734.063 228.046H707.353ZM743.276 218.407V195.914H832.643V218.407H801.716V298.737H774.203V218.407H743.276ZM937.925 247.326C937.925 258.773 935.699 268.429 931.247 276.294C926.796 284.127 920.788 290.068 913.223 294.118C905.659 298.134 897.224 300.142 887.92 300.142C878.548 300.142 870.08 298.117 862.515 294.067C854.984 289.984 848.993 284.026 844.541 276.194C840.123 268.328 837.914 258.706 837.914 247.326C837.914 235.879 840.123 226.239 844.541 218.407C848.993 210.541 854.984 204.6 862.515 200.584C870.08 196.534 878.548 194.509 887.92 194.509C897.224 194.509 905.659 196.534 913.223 200.584C920.788 204.6 926.796 210.541 931.247 218.407C935.699 226.239 937.925 235.879 937.925 247.326ZM909.207 247.326C909.207 241.167 908.387 235.979 906.747 231.762C905.14 227.511 902.747 224.298 899.567 222.122C896.421 219.913 892.539 218.808 887.92 218.808C883.301 218.808 879.401 219.913 876.222 222.122C873.075 224.298 870.682 227.511 869.042 231.762C867.435 235.979 866.632 241.167 866.632 247.326C866.632 253.484 867.435 258.689 869.042 262.94C870.682 267.157 873.075 270.37 876.222 272.579C879.401 274.755 883.301 275.843 887.92 275.843C892.539 275.843 896.421 274.755 899.567 272.579C902.747 270.37 905.14 267.157 906.747 262.94C908.387 258.689 909.207 253.484 909.207 247.326Z" fill="#F1F8F9"/>
<path d="M44.148 335.904V333.045L41.2889 333.045C36.3542 333.046 28.2468 333.046 21.3729 333.046L12.5383 333.045L9.84769 333.045L9.1148 333.045L8.92405 333.045L8.87542 333.045L8.86315 333.045H8.86006H8.85929C8.85912 333.045 8.85903 333.045 8.85889 335.904L8.85903 333.045L6.00013 333.045V335.904V409.225C6.00027 416.29 6.28176 428.586 13.3028 439.171C20.4738 449.982 34.1925 458.358 59.5906 458.614C69.8911 458.717 105.963 458.717 139.434 458.691C156.175 458.678 172.273 458.659 184.186 458.643C190.143 458.635 195.053 458.628 198.474 458.622L202.434 458.616L203.472 458.614L203.738 458.614L203.805 458.614L203.822 458.614L203.826 458.614C203.827 458.614 203.828 458.614 203.823 455.755L203.828 458.614L205.65 458.611L206.417 456.957L215.885 436.517L257.038 531.485C259.07 536.173 265.761 536.046 267.613 531.284L317.294 403.533L342.95 478.116C344.682 483.151 351.751 483.293 353.684 478.332L370.367 435.513L385.025 456.202C386.097 457.715 387.836 458.614 389.691 458.614H808.45H989.981C1002.61 458.614 1011.93 455.462 1018.59 449.18C1025.19 442.95 1028.75 434.02 1030.67 423.316C1032.6 412.607 1032.95 399.763 1032.84 385.363C1032.79 379.286 1032.66 372.977 1032.53 366.411C1032.34 357.241 1032.15 347.571 1032.15 337.334V334.475L1029.29 334.475C1016.33 334.474 1012.26 334.475 1005.51 334.475L999.272 334.475L996.413 334.475V337.333C996.413 348.566 996.783 359.146 997.117 368.742C997.152 369.729 997.186 370.706 997.219 371.672C997.577 382.068 997.84 391.158 997.489 398.689C997.134 406.296 996.162 411.895 994.313 415.526C993.416 417.286 992.365 418.478 991.166 419.244C989.979 420.003 988.456 420.466 986.408 420.466H808.45L390.12 420.466L373.642 380.848C371.645 376.047 364.795 376.188 362.998 381.067L348.465 420.514L322.665 334.717C321.083 329.455 313.714 329.236 311.822 334.395L262.27 469.536L224.946 379.073C223.202 374.846 217.448 374.275 214.907 378.076L217.284 379.665L214.907 378.076L186.572 420.466H63.8494C58.25 420.466 54.7657 419.906 52.3459 418.36C50.0708 416.907 48.2228 414.226 46.892 408.57C45.5539 402.883 44.8514 394.677 44.4992 382.791C44.1483 370.946 44.148 355.662 44.148 335.904ZM215.896 436.497L215.896 436.497C215.897 436.496 215.897 436.496 215.896 436.497Z" fill="#6AD9AB" stroke="#6AD9AB" stroke-width="5.71752"/>
<path d="M994.711 335.904V333.044L997.57 333.045C1002.5 333.045 1010.61 333.045 1017.49 333.045L1026.32 333.045L1029.01 333.045L1029.74 333.045L1029.93 333.045L1029.98 333.045L1030 333.045L1030 333.045H1030C1030 333.045 1030 333.045 1030 335.904L1030 333.045L1032.86 333.045V335.904V409.224C1032.86 416.29 1032.58 428.585 1025.56 439.17C1018.39 449.982 1004.67 458.358 979.268 458.613L976.733 458.639L976.405 456.124L972.175 423.694L971.754 420.466H975.009C980.609 420.466 984.093 419.906 986.513 418.36C988.788 416.906 990.636 414.226 991.967 408.57C993.305 402.883 994.008 394.676 994.36 382.791C994.711 370.946 994.711 355.662 994.711 335.904Z" fill="#6AD9AB" stroke="#6AD9AB" stroke-width="5.71752"/>
<path d="M41.2891 330.186V327.327L38.43 327.328C33.4953 327.328 25.3879 327.328 18.514 327.328L9.6794 327.328L6.9888 327.328L6.25591 327.328L6.06516 327.328L6.01653 327.328L6.00426 327.328H6.00118H6.0004C6.00023 327.328 6.00015 327.328 6 330.186L6.00015 327.328L3.14124 327.328V330.186V403.507C3.14138 410.573 3.42288 422.868 10.4439 433.453C17.6149 444.265 31.3336 452.641 56.7317 452.896C67.0322 453 103.104 453 136.575 452.974C153.316 452.961 169.414 452.942 181.327 452.925C187.284 452.917 192.194 452.91 195.615 452.905L199.575 452.899L200.613 452.897L200.879 452.896L200.946 452.896L200.963 452.896L200.967 452.896C200.968 452.896 200.969 452.896 200.964 450.038L200.969 452.896L202.792 452.893L203.558 451.239L213.026 430.8L254.179 525.768C256.211 530.456 262.902 530.328 264.754 525.567L314.435 397.816L340.091 472.399C341.824 477.434 348.892 477.576 350.825 472.614L367.508 429.795L382.167 450.484C383.239 451.997 384.978 452.896 386.832 452.896H805.591H987.122C999.748 452.896 1009.08 449.744 1015.73 443.462C1022.33 437.233 1025.89 428.303 1027.81 417.598C1029.74 406.89 1030.09 394.045 1029.98 379.645C1029.93 373.569 1029.81 367.26 1029.67 360.694C1029.49 351.524 1029.29 341.853 1029.29 331.616V328.758L1026.43 328.757C1013.47 328.757 1009.4 328.757 1002.65 328.757L996.413 328.757L993.555 328.757V331.616C993.555 342.849 993.924 353.428 994.259 363.024C994.293 364.012 994.327 364.988 994.36 365.955C994.718 376.35 994.981 385.44 994.63 392.971C994.275 400.579 993.303 406.178 991.454 409.808C990.557 411.568 989.506 412.76 988.307 413.526C987.12 414.285 985.597 414.748 983.549 414.748H805.591L387.261 414.748L370.783 375.13C368.786 370.329 361.936 370.47 360.139 375.349L345.606 414.796L319.807 328.999C318.224 323.738 310.855 323.519 308.963 328.677L259.411 463.819L222.087 373.355C220.343 369.128 214.589 368.557 212.049 372.358L214.425 373.947L212.048 372.359L183.713 414.748H60.9906C55.3911 414.748 51.9068 414.189 49.487 412.643C47.2119 411.189 45.3639 408.509 44.0331 402.853C42.695 397.166 41.9925 388.959 41.6403 377.073C41.2894 365.229 41.2891 349.944 41.2891 330.186ZM213.037 430.779L213.037 430.78C213.038 430.778 213.038 430.778 213.037 430.779Z" fill="#F1F8F9" stroke="#F1F8F9" stroke-width="5.71752"/>
<path d="M991.853 330.186V327.327L994.712 327.328C999.646 327.328 1007.75 327.328 1014.63 327.328L1023.46 327.328L1026.15 327.328L1026.89 327.328L1027.08 327.328L1027.13 327.328L1027.14 327.328L1027.14 327.328H1027.14C1027.14 327.328 1027.14 327.328 1027.14 330.186L1027.14 327.328L1030 327.327V330.186V403.507C1030 410.572 1029.72 422.868 1022.7 433.453C1015.53 444.265 1001.81 452.64 976.41 452.896L973.874 452.922L973.546 450.407L969.316 417.977L968.895 414.748H972.151C977.751 414.748 981.235 414.188 983.655 412.643C985.93 411.189 987.778 408.509 989.108 402.853C990.447 397.166 991.149 388.959 991.501 377.073C991.852 365.229 991.853 349.944 991.853 330.186Z" fill="#F1F8F9" stroke="#F1F8F9" stroke-width="5.71752"/>
</svg>
