<svg width="141" height="73" viewBox="0 0 141 73" fill="none" xmlns="http://www.w3.org/2000/svg">
<path d="M19.7466 0.16414V7.62868C19.7466 7.62868 25.6799 9.15976 25.6799 3.80061C25.6799 -1.17568 19.7466 0.16414 19.7466 0.16414Z" fill="#8AECC3"/>
<path d="M4.4374 40.6555H1.94922V8.6131C1.94922 3.86647 5.77719 2.67973 7.69117 2.67969H17.8353V5.16793C15.6661 5.10413 10.6004 5.01481 7.69117 5.16793C4.78192 5.32105 4.3098 7.52851 4.4374 8.6131V40.6555Z" fill="#3B4AE2"/>
<path d="M120.866 0.16414V7.62868C120.866 7.62868 114.932 9.15976 114.932 3.80061C114.932 -1.17568 120.866 0.16414 120.866 0.16414Z" fill="#8AECC3"/>
<path d="M136.175 40.6555H138.663V8.6131C138.663 3.86647 134.835 2.67973 132.921 2.67969H122.777V5.16793C124.946 5.10413 130.012 5.01481 132.921 5.16793C135.83 5.32105 136.303 7.52851 136.175 8.6131V40.6555Z" fill="#3B4AE2"/>
<path d="M17.3176 22.209H14.0191V12.0202H17.4221C18.4204 12.0202 19.2777 12.2241 19.9941 12.6321C20.7105 13.0367 21.2594 13.6188 21.6409 14.3783C22.0256 15.1345 22.218 16.0416 22.218 17.0996C22.218 18.161 22.0239 19.0731 21.6359 19.8359C21.2512 20.5987 20.694 21.1858 19.9643 21.5971C19.2346 22.005 18.3524 22.209 17.3176 22.209ZM15.5564 20.8657H17.233C18.0091 20.8657 18.6542 20.7198 19.1683 20.4279C19.6824 20.1327 20.0671 19.7066 20.3225 19.1494C20.5779 18.5888 20.7056 17.9056 20.7056 17.0996C20.7056 16.3003 20.5779 15.6221 20.3225 15.0649C20.0704 14.5077 19.694 14.0848 19.1932 13.7962C18.6923 13.5077 18.0705 13.3634 17.3275 13.3634H15.5564V20.8657ZM27.229 22.3632C26.5126 22.3632 25.8874 22.199 25.3535 21.8707C24.8195 21.5423 24.4049 21.083 24.1097 20.4926C23.8145 19.9022 23.6669 19.2124 23.6669 18.423C23.6669 17.6303 23.8145 16.9371 24.1097 16.3434C24.4049 15.7498 24.8195 15.2887 25.3535 14.9604C25.8874 14.632 26.5126 14.4679 27.229 14.4679C27.9454 14.4679 28.5706 14.632 29.1046 14.9604C29.6386 15.2887 30.0532 15.7498 30.3484 16.3434C30.6436 16.9371 30.7912 17.6303 30.7912 18.423C30.7912 19.2124 30.6436 19.9022 30.3484 20.4926C30.0532 21.083 29.6386 21.5423 29.1046 21.8707C28.5706 22.199 27.9454 22.3632 27.229 22.3632ZM27.234 21.1145C27.6984 21.1145 28.0831 20.9918 28.3882 20.7463C28.6934 20.5009 28.9189 20.1742 29.0648 19.7663C29.2141 19.3583 29.2887 18.9089 29.2887 18.418C29.2887 17.9305 29.2141 17.4827 29.0648 17.0748C28.9189 16.6635 28.6934 16.3335 28.3882 16.0847C28.0831 15.836 27.6984 15.7116 27.234 15.7116C26.7664 15.7116 26.3783 15.836 26.0699 16.0847C25.7647 16.3335 25.5375 16.6635 25.3883 17.0748C25.2424 17.4827 25.1694 17.9305 25.1694 18.418C25.1694 18.9089 25.2424 19.3583 25.3883 19.7663C25.5375 20.1742 25.7647 20.5009 26.0699 20.7463C26.3783 20.9918 26.7664 21.1145 27.234 21.1145ZM37.2923 19.0399V14.5674H38.7848V22.209H37.3221V20.8856H37.2425C37.0667 21.2936 36.7848 21.6335 36.3968 21.9055C36.012 22.1742 35.5328 22.3085 34.959 22.3085C34.4681 22.3085 34.0336 22.2007 33.6555 21.9851C33.2807 21.7662 32.9856 21.4428 32.77 21.015C32.5577 20.5871 32.4516 20.0581 32.4516 19.428V14.5674H33.9391V19.2489C33.9391 19.7696 34.0834 20.1842 34.3719 20.4926C34.6605 20.8011 35.0353 20.9553 35.4963 20.9553C35.7749 20.9553 36.0518 20.8856 36.3271 20.7463C36.6057 20.607 36.8362 20.3964 37.0186 20.1145C37.2044 19.8326 37.2956 19.4744 37.2923 19.0399ZM44.3506 14.5674V15.7614H40.1765V14.5674H44.3506ZM41.2959 12.7366H42.7834V19.9653C42.7834 20.2538 42.8265 20.471 42.9128 20.617C42.999 20.7596 43.1101 20.8574 43.2461 20.9105C43.3854 20.9603 43.5363 20.9851 43.6988 20.9851C43.8182 20.9851 43.9227 20.9768 44.0123 20.9603C44.1018 20.9437 44.1715 20.9304 44.2212 20.9205L44.4899 22.1493C44.4036 22.1825 44.2809 22.2156 44.1217 22.2488C43.9625 22.2853 43.7635 22.3052 43.5247 22.3085C43.1333 22.3151 42.7685 22.2455 42.4302 22.0995C42.0919 21.9536 41.8183 21.7281 41.6093 21.4229C41.4004 21.1178 41.2959 20.7347 41.2959 20.2737V12.7366ZM49.1328 22.3632C48.4164 22.3632 47.7912 22.199 47.2572 21.8707C46.7232 21.5423 46.3086 21.083 46.0134 20.4926C45.7183 19.9022 45.5707 19.2124 45.5707 18.423C45.5707 17.6303 45.7183 16.9371 46.0134 16.3434C46.3086 15.7498 46.7232 15.2887 47.2572 14.9604C47.7912 14.632 48.4164 14.4679 49.1328 14.4679C49.8492 14.4679 50.4744 14.632 51.0084 14.9604C51.5423 15.2887 51.9569 15.7498 52.2521 16.3434C52.5473 16.9371 52.6949 17.6303 52.6949 18.423C52.6949 19.2124 52.5473 19.9022 52.2521 20.4926C51.9569 21.083 51.5423 21.5423 51.0084 21.8707C50.4744 22.199 49.8492 22.3632 49.1328 22.3632ZM49.1378 21.1145C49.6021 21.1145 49.9868 20.9918 50.292 20.7463C50.5971 20.5009 50.8226 20.1742 50.9686 19.7663C51.1178 19.3583 51.1924 18.9089 51.1924 18.418C51.1924 17.9305 51.1178 17.4827 50.9686 17.0748C50.8226 16.6635 50.5971 16.3335 50.292 16.0847C49.9868 15.836 49.6021 15.7116 49.1378 15.7116C48.6701 15.7116 48.2821 15.836 47.9736 16.0847C47.6685 16.3335 47.4413 16.6635 47.292 17.0748C47.1461 17.4827 47.0731 17.9305 47.0731 18.418C47.0731 18.9089 47.1461 19.3583 47.292 19.7663C47.4413 20.1742 47.6685 20.5009 47.9736 20.7463C48.2821 20.9918 48.6701 21.1145 49.1378 21.1145ZM54.3553 22.209V14.5674H55.7931V15.7813H55.8727C56.012 15.37 56.2574 15.0466 56.609 14.8111C56.9639 14.5723 57.3652 14.4529 57.8129 14.4529C57.9058 14.4529 58.0153 14.4563 58.1413 14.4629C58.2706 14.4695 58.3718 14.4778 58.4448 14.4878V15.9106C58.3851 15.894 58.2789 15.8758 58.1264 15.8559C57.9738 15.8327 57.8212 15.8211 57.6687 15.8211C57.3171 15.8211 57.0037 15.8957 56.7284 16.0449C56.4564 16.1909 56.2408 16.3949 56.0816 16.6569C55.9224 16.9156 55.8428 17.2108 55.8428 17.5424V22.209H54.3553Z" fill="#3B4AE2"/>
<path d="M14.4844 40.2397V26.2825H20.5362C21.5994 26.2825 22.4922 26.4256 23.2146 26.7118C23.9415 26.998 24.489 27.4024 24.857 27.9249C25.2296 28.4474 25.4158 29.063 25.4158 29.7718C25.4158 30.2852 25.3023 30.7531 25.0751 31.1757C24.8525 31.5982 24.539 31.9526 24.1346 32.2388C23.7302 32.5205 23.2577 32.7159 22.7171 32.8249V32.9612C23.3168 32.984 23.862 33.1362 24.3527 33.4178C24.8434 33.695 25.2341 34.0789 25.5249 34.5696C25.8157 35.0557 25.961 35.6282 25.961 36.287C25.961 37.0503 25.7611 37.7295 25.3613 38.3247C24.966 38.9199 24.4027 39.3879 23.6712 39.7286C22.9397 40.0694 22.0674 40.2397 21.0542 40.2397H14.4844ZM18.2736 37.2138H20.0456C20.6816 37.2138 21.1587 37.0957 21.4767 36.8595C21.7948 36.6187 21.9538 36.2643 21.9538 35.7963C21.9538 35.4692 21.8788 35.192 21.7289 34.9649C21.5789 34.7377 21.3654 34.5651 21.0883 34.4469C20.8157 34.3288 20.4863 34.2697 20.1001 34.2697H18.2736V37.2138ZM18.2736 31.9253H19.8275C20.1591 31.9253 20.4522 31.8731 20.7066 31.7686C20.961 31.6641 21.1587 31.5142 21.2995 31.3188C21.4449 31.1189 21.5176 30.8758 21.5176 30.5896C21.5176 30.158 21.3631 29.8286 21.0542 29.6014C20.7452 29.3697 20.3545 29.2538 19.882 29.2538H18.2736V31.9253ZM40.8247 33.2611C40.8247 34.8149 40.5226 36.1257 39.9183 37.1934C39.3141 38.2566 38.4985 39.063 37.4717 39.6128C36.4449 40.158 35.3 40.4306 34.0369 40.4306C32.7648 40.4306 31.6153 40.1557 30.5885 39.6059C29.5662 39.0516 28.753 38.2429 28.1487 37.1798C27.549 36.1121 27.2491 34.8059 27.2491 33.2611C27.2491 31.7073 27.549 30.3988 28.1487 29.3356C28.753 28.2679 29.5662 27.4615 30.5885 26.9163C31.6153 26.3665 32.7648 26.0916 34.0369 26.0916C35.3 26.0916 36.4449 26.3665 37.4717 26.9163C38.4985 27.4615 39.3141 28.2679 39.9183 29.3356C40.5226 30.3988 40.8247 31.7073 40.8247 33.2611ZM36.9265 33.2611C36.9265 32.4251 36.8152 31.7209 36.5926 31.1484C36.3745 30.5714 36.0496 30.1352 35.618 29.8399C35.1909 29.5401 34.6639 29.3901 34.0369 29.3901C33.4099 29.3901 32.8806 29.5401 32.449 29.8399C32.0219 30.1352 31.6971 30.5714 31.4744 31.1484C31.2564 31.7209 31.1473 32.4251 31.1473 33.2611C31.1473 34.0971 31.2564 34.8036 31.4744 35.3806C31.6971 35.9531 32.0219 36.3892 32.449 36.6891C32.8806 36.9844 33.4099 37.1321 34.0369 37.1321C34.6639 37.1321 35.1909 36.9844 35.618 36.6891C36.0496 36.3892 36.3745 35.9531 36.5926 35.3806C36.8152 34.8036 36.9265 34.0971 36.9265 33.2611ZM42.5779 26.2825H47.294L50.5379 34.188H50.7015L53.9455 26.2825H58.6615V40.2397H54.9541V32.1707H54.8451L51.7374 40.1307H49.5021L46.3944 32.1162H46.2853V40.2397H42.5779V26.2825ZM73.4877 31.5164H69.644C69.6168 31.1984 69.5441 30.9099 69.426 30.6509C69.3124 30.3919 69.1534 30.1693 68.9489 29.983C68.749 29.7922 68.5059 29.6468 68.2197 29.5469C67.9335 29.4424 67.6086 29.3901 67.2451 29.3901C66.6091 29.3901 66.0707 29.5446 65.63 29.8536C65.1938 30.1625 64.8621 30.6055 64.635 31.1825C64.4123 31.7595 64.301 32.4524 64.301 33.2611C64.301 34.1153 64.4146 34.8308 64.6418 35.4079C64.8735 35.9803 65.2074 36.4119 65.6436 36.7027C66.0797 36.989 66.6045 37.1321 67.2179 37.1321C67.5677 37.1321 67.8812 37.0889 68.1584 37.0026C68.4355 36.9117 68.6763 36.7822 68.8807 36.6141C69.0852 36.446 69.251 36.2438 69.3783 36.0076C69.51 35.7668 69.5986 35.4964 69.644 35.1966L73.4877 35.2238C73.4423 35.8145 73.2765 36.4165 72.9902 37.0298C72.704 37.6387 72.2974 38.202 71.7703 38.72C71.2479 39.2334 70.6004 39.6468 69.828 39.9603C69.0557 40.2738 68.1584 40.4306 67.1361 40.4306C65.8549 40.4306 64.7054 40.1557 63.6877 39.6059C62.6745 39.0562 61.8726 38.2475 61.2819 37.1798C60.6958 36.1121 60.4028 34.8059 60.4028 33.2611C60.4028 31.7073 60.7026 30.3988 61.3024 29.3356C61.9021 28.2679 62.7108 27.4615 63.7285 26.9163C64.7463 26.3665 65.8821 26.0916 67.1361 26.0916C68.0175 26.0916 68.8285 26.212 69.5691 26.4528C70.3096 26.6936 70.9594 27.0457 71.5182 27.5092C72.077 27.968 72.5268 28.5337 72.8676 29.2061C73.2083 29.8785 73.4151 30.6486 73.4877 31.5164ZM83.4667 26.2825H87.2559V35.2238C87.2559 36.287 87.0015 37.207 86.4926 37.984C85.9883 38.7563 85.2841 39.3538 84.38 39.7763C83.4758 40.1943 82.4263 40.4033 81.2314 40.4033C80.0274 40.4033 78.9733 40.1943 78.0692 39.7763C77.1651 39.3538 76.4608 38.7563 75.9565 37.984C75.4567 37.207 75.2069 36.287 75.2069 35.2238V26.2825H78.996V34.8967C78.996 35.3283 79.0915 35.7145 79.2823 36.0553C79.4731 36.3915 79.7366 36.655 80.0728 36.8458C80.4136 37.0367 80.7998 37.1321 81.2314 37.1321C81.6676 37.1321 82.0537 37.0367 82.39 36.8458C82.7262 36.655 82.9897 36.3915 83.1805 36.0553C83.3713 35.7145 83.4667 35.3283 83.4667 34.8967V26.2825ZM96.5807 30.6441C96.5443 30.1898 96.3739 29.8354 96.0695 29.581C95.7697 29.3265 95.3131 29.1993 94.6997 29.1993C94.309 29.1993 93.9887 29.247 93.7388 29.3424C93.4934 29.4333 93.3117 29.5582 93.1936 29.7173C93.0754 29.8763 93.0141 30.058 93.0096 30.2625C93.0005 30.4306 93.03 30.5828 93.0982 30.7191C93.1709 30.8508 93.2844 30.9712 93.4389 31.0803C93.5934 31.1848 93.791 31.2802 94.0318 31.3665C94.2726 31.4528 94.5589 31.5301 94.8905 31.5982L96.0355 31.8436C96.8078 32.0071 97.4689 32.2229 98.0187 32.491C98.5684 32.7591 99.0182 33.0748 99.368 33.4383C99.7179 33.7972 99.9746 34.2016 100.138 34.6514C100.306 35.1012 100.393 35.5919 100.397 36.1234C100.393 37.0412 100.163 37.8181 99.7088 38.4542C99.2545 39.0903 98.6048 39.5741 97.7597 39.9058C96.9192 40.2375 95.9083 40.4033 94.727 40.4033C93.5139 40.4033 92.4553 40.2238 91.5511 39.8649C90.6515 39.506 89.9519 38.954 89.4521 38.2089C88.9569 37.4592 88.707 36.5005 88.7024 35.3329H92.3008C92.3235 35.76 92.4303 36.1189 92.6211 36.4097C92.8119 36.7004 93.08 36.9208 93.4253 37.0707C93.7751 37.2207 94.1908 37.2956 94.6724 37.2956C95.0768 37.2956 95.4153 37.2457 95.6879 37.1457C95.9605 37.0457 96.1672 36.9072 96.3081 36.73C96.4489 36.5528 96.5216 36.3506 96.5262 36.1234C96.5216 35.9099 96.4512 35.7236 96.3149 35.5646C96.1831 35.401 95.965 35.2556 95.6606 35.1284C95.3562 34.9967 94.9451 34.874 94.4271 34.7604L93.0368 34.4606C91.801 34.1925 90.8265 33.745 90.1132 33.118C89.4044 32.4865 89.0523 31.6255 89.0568 30.5351C89.0523 29.6491 89.2885 28.8745 89.7656 28.2111C90.2472 27.5432 90.9128 27.023 91.7624 26.6505C92.6166 26.2779 93.5957 26.0916 94.6997 26.0916C95.8265 26.0916 96.801 26.2802 97.6234 26.6573C98.4457 27.0344 99.0795 27.566 99.5248 28.252C99.9746 28.9335 100.202 29.7309 100.206 30.6441H96.5807ZM101.457 29.3356V26.2825H113.588V29.3356H109.39V40.2397H105.655V29.3356H101.457ZM127.879 33.2611C127.879 34.8149 127.577 36.1257 126.973 37.1934C126.368 38.2566 125.553 39.063 124.526 39.6128C123.499 40.158 122.354 40.4306 121.091 40.4306C119.819 40.4306 118.669 40.1557 117.643 39.6059C116.62 39.0516 115.807 38.2429 115.203 37.1798C114.603 36.1121 114.303 34.8059 114.303 33.2611C114.303 31.7073 114.603 30.3988 115.203 29.3356C115.807 28.2679 116.62 27.4615 117.643 26.9163C118.669 26.3665 119.819 26.0916 121.091 26.0916C122.354 26.0916 123.499 26.3665 124.526 26.9163C125.553 27.4615 126.368 28.2679 126.973 29.3356C127.577 30.3988 127.879 31.7073 127.879 33.2611ZM123.981 33.2611C123.981 32.4251 123.869 31.7209 123.647 31.1484C123.429 30.5714 123.104 30.1352 122.672 29.8399C122.245 29.5401 121.718 29.3901 121.091 29.3901C120.464 29.3901 119.935 29.5401 119.503 29.8399C119.076 30.1352 118.751 30.5714 118.529 31.1484C118.311 31.7209 118.202 32.4251 118.202 33.2611C118.202 34.0971 118.311 34.8036 118.529 35.3806C118.751 35.9531 119.076 36.3892 119.503 36.6891C119.935 36.9844 120.464 37.1321 121.091 37.1321C121.718 37.1321 122.245 36.9844 122.672 36.6891C123.104 36.3892 123.429 35.9531 123.647 35.3806C123.869 34.8036 123.981 34.0971 123.981 33.2611Z" fill="#3B4AE2"/>
<path d="M6.1784 45.5963V45.2082L5.7903 45.2082L3.08686 45.2083L1.88763 45.2083L1.52241 45.2082L1.42292 45.2082L1.39703 45.2082L1.39043 45.2082L1.38876 45.2082H1.38834H1.38824L1.38818 45.5963L1.3882 45.2082L1.00013 45.2082V45.5963V55.549C1.00015 56.5081 1.03836 58.1771 1.99141 59.614C2.96482 61.0815 4.82703 62.2185 8.27462 62.2532C9.67283 62.2673 14.5694 62.2672 19.1127 62.2637C21.3852 62.262 23.5704 62.2593 25.1875 62.2572L27.127 62.2544L27.6645 62.2535L27.8054 62.2533L27.8415 62.2532L27.8506 62.2532L27.8529 62.2532H27.8535C27.8536 62.2532 27.8537 62.2532 27.853 61.8651L27.8537 62.2532L28.1011 62.2528L28.2051 62.0283L29.4904 59.2538L35.0766 72.1449C35.3523 72.7813 36.2607 72.764 36.512 72.1176L43.2558 54.7765L46.7385 64.9005C46.9736 65.5839 47.9332 65.6032 48.1955 64.9298L50.4601 59.1174L52.4499 61.9258C52.5954 62.1311 52.8314 62.2532 53.0831 62.2532H109.926H134.568C136.282 62.2532 137.548 61.8253 138.451 60.9726C139.347 60.127 139.83 58.9148 140.092 57.4617C140.353 56.0082 140.401 54.2646 140.386 52.31C140.379 51.4852 140.362 50.6288 140.344 49.7377C140.318 48.4928 140.292 47.18 140.292 45.7904V45.4023L139.904 45.4023L135.829 45.4023L135.441 45.4023V45.7903C135.441 47.3152 135.491 48.7515 135.537 50.0542C135.541 50.1881 135.546 50.3205 135.55 50.4515C135.599 51.8627 135.635 53.0966 135.587 54.1188C135.539 55.1515 135.407 55.9115 135.156 56.4043C135.034 56.6432 134.891 56.805 134.729 56.909C134.568 57.0121 134.361 57.0749 134.083 57.0749H109.926H53.1414L50.9046 51.6971C50.6335 51.0454 49.7038 51.0645 49.4597 51.7268L47.487 57.0814L43.985 45.4352C43.7702 44.7209 42.7698 44.6912 42.5131 45.3915L35.7868 63.7359L30.7203 51.4561C30.4836 50.8824 29.7026 50.8048 29.3577 51.3208L25.5113 57.0749H8.85272C8.09264 57.0749 7.61968 56.9989 7.2912 56.7891C6.98237 56.5918 6.73153 56.2279 6.55088 55.4602C6.36924 54.6882 6.27388 53.5742 6.22608 51.9608C6.17844 50.353 6.1784 48.2783 6.1784 45.5963Z" fill="#6AD9AB" stroke="#6AD9AB" stroke-width="0.776108"/>
<path d="M135.21 45.5962V45.2081L135.598 45.2081L138.301 45.2082L139.501 45.2082L139.866 45.2081L139.965 45.2081L139.991 45.2081L139.998 45.2081L139.999 45.2081L140 45.2081H140L140 45.5962L140 45.2081L140.388 45.2081V45.5962V55.5489C140.388 56.508 140.35 58.177 139.397 59.6139C138.423 61.0814 136.561 62.2184 133.114 62.2531L132.769 62.2565L132.725 61.9152L132.151 57.5131L132.094 57.0748H132.535C133.296 57.0748 133.769 56.9988 134.097 56.789C134.406 56.5917 134.657 56.2278 134.837 55.4601C135.019 54.6881 135.114 53.5741 135.162 51.9607C135.21 50.3529 135.21 48.2782 135.21 45.5962Z" fill="#6AD9AB" stroke="#6AD9AB" stroke-width="0.776108"/>
<path d="M5.79022 44.8204V44.4323L5.40212 44.4324L2.69868 44.4324L1.49945 44.4324L1.13422 44.4324L1.03474 44.4324L1.00885 44.4324L1.00224 44.4324L1.00058 44.4324H1.00016H1.00005L1 44.8204L1.00002 44.4324L0.611946 44.4323V44.8204V54.7731C0.611965 55.7322 0.650176 57.4012 1.60323 58.8381C2.57664 60.3056 4.43884 61.4426 7.88644 61.4773C9.28465 61.4914 14.1812 61.4914 18.7245 61.4879C20.997 61.4861 23.1822 61.4835 24.7993 61.4813L26.7388 61.4785L27.2763 61.4776L27.4172 61.4774L27.4533 61.4773L27.4624 61.4773L27.4647 61.4773H27.4653C27.4654 61.4773 27.4655 61.4773 27.4648 61.0893L27.4655 61.4773L27.7129 61.4769L27.8169 61.2524L29.1022 58.4779L34.6884 71.369C34.9642 72.0054 35.8725 71.9881 36.1239 71.3418L42.8676 54.0006L46.3503 64.1246C46.5854 64.8081 47.545 64.8274 47.8074 64.1539L50.0719 58.3415L52.0617 61.1499C52.2072 61.3553 52.4432 61.4773 52.6949 61.4773H109.538H134.18C135.893 61.4773 137.16 61.0494 138.063 60.1967C138.958 59.3511 139.442 58.1389 139.703 56.6859C139.965 55.2323 140.013 53.4887 139.997 51.5341C139.991 50.7093 139.974 49.853 139.956 48.9618C139.93 47.717 139.904 46.4042 139.904 45.0145V44.6265L139.515 44.6265L135.441 44.6264L135.053 44.6264V45.0144C135.053 46.5394 135.103 47.9756 135.148 49.2783C135.153 49.4122 135.158 49.5446 135.162 49.6757C135.211 51.0868 135.246 52.3207 135.199 53.3429C135.151 54.3757 135.019 55.1356 134.768 55.6284C134.646 55.8674 134.503 56.0292 134.341 56.1331C134.179 56.2362 133.973 56.2991 133.695 56.2991H109.538H52.7532L50.5164 50.9212C50.2453 50.2695 49.3156 50.2886 49.0716 50.9509L47.0988 56.3055L43.5968 44.6593C43.382 43.945 42.3816 43.9154 42.1249 44.6156L35.3986 62.96L30.3321 50.6802C30.0954 50.1065 29.3144 50.0289 28.9695 50.545L25.1231 56.2991H8.46454C7.70445 56.2991 7.2315 56.2231 6.90302 56.0132C6.59419 55.8159 6.34335 55.4521 6.1627 54.6843C5.98106 53.9124 5.8857 52.7983 5.8379 51.185C5.79026 49.5771 5.79022 47.5024 5.79022 44.8204Z" fill="#3B4AE2" stroke="#3B4AE2" stroke-width="0.776108"/>
<path d="M134.822 44.8203V44.4322L135.21 44.4323L137.913 44.4323L139.112 44.4323L139.478 44.4323L139.577 44.4323L139.603 44.4323L139.61 44.4323L139.611 44.4323L139.612 44.4323H139.612L139.612 44.8203L139.612 44.4323L140 44.4322V44.8203V54.773C140 55.7321 139.962 57.4011 139.009 58.838C138.035 60.3055 136.173 61.4425 132.725 61.4772L132.381 61.4807L132.337 61.1394L131.762 56.7372L131.705 56.2989H132.147C132.907 56.2989 133.38 56.2229 133.709 56.0131C134.018 55.8158 134.268 55.452 134.449 54.6842C134.631 53.9122 134.726 52.7982 134.774 51.1849C134.822 49.577 134.822 47.5023 134.822 44.8203Z" fill="#3B4AE2" stroke="#3B4AE2" stroke-width="0.776108"/>
</svg>
