<svg width="413" height="169" fill="none" xmlns="http://www.w3.org/2000/svg"><path opacity=".34" d="M-111 76.879S9.025-26.12 81.133 7.885c34.464 16.253 33.116 56.16 68.994 68.994C209.453 98.1 234.261-4.828 295.973 7.885c43.894 9.043 103.054 68.994 103.054 68.994" stroke="#8AECC3" stroke-width="1.747"/><path opacity=".34" d="M-111 120.717S9.025 17.72 81.133 51.724c34.464 16.252 33.116 56.159 68.994 68.993 59.326 21.223 84.134-81.706 145.846-68.993 43.894 9.042 103.054 68.993 103.054 68.993" stroke="#8AECC3" stroke-width="1.747"/><path opacity=".34" d="M-111 164.556S9.025 61.558 81.133 95.562c34.464 16.253 33.116 56.159 68.994 68.994 59.326 21.222 84.134-81.707 145.846-68.994 43.894 9.043 103.054 68.994 103.054 68.994" stroke="#8AECC3" stroke-width="1.747"/></svg>