<svg width="1798" height="1419" viewBox="0 0 1798 1419" fill="none" xmlns="http://www.w3.org/2000/svg">
<path d="M1766.34 564.979L1798 545.852V584.107L1766.34 564.979Z" fill="#2F3947"/>
<path d="M1713.14 564.979L1744.79 545.852V584.107L1713.14 564.979Z" fill="#2F3947"/>
<path d="M1659.93 564.979L1691.58 545.852V584.107L1659.93 564.979Z" fill="#2F3947"/>
<path d="M1606.72 564.979L1638.38 545.852V584.107L1606.72 564.979Z" fill="#2F3947"/>
<path d="M107.115 1107.15L126.243 1138.81H87.9873L107.115 1107.15Z" fill="#2F3947"/>
<path d="M107.115 1053.95L126.243 1085.6H87.9873L107.115 1053.95Z" fill="#2F3947"/>
<path d="M107.115 1000.74L126.243 1032.39H87.9873L107.115 1000.74Z" fill="#2F3947"/>
<path d="M107.115 947.532L126.243 979.188H87.9873L107.115 947.532Z" fill="#2F3947"/>
<path d="M1481.9 1407.58C1484.8 1407.58 1487.15 1409.93 1487.15 1412.83C1487.15 1415.72 1484.8 1418.07 1481.9 1418.07C1479 1418.07 1476.65 1415.72 1476.65 1412.83C1476.65 1409.93 1479 1407.58 1481.9 1407.58Z" fill="#2F3947"/>
<path d="M1502.23 1407.58C1505.13 1407.58 1507.48 1409.93 1507.48 1412.83C1507.48 1415.72 1505.13 1418.07 1502.23 1418.07C1499.33 1418.07 1496.98 1415.72 1496.98 1412.83C1496.98 1409.93 1499.33 1407.58 1502.23 1407.58Z" fill="#2F3947"/>
<path d="M1522.56 1407.58C1525.46 1407.58 1527.81 1409.93 1527.81 1412.83C1527.81 1415.72 1525.46 1418.07 1522.56 1418.07C1519.66 1418.07 1517.32 1415.72 1517.32 1412.83C1517.32 1409.93 1519.66 1407.58 1522.56 1407.58Z" fill="#2F3947"/>
<path d="M1542.89 1407.58C1545.79 1407.58 1548.14 1409.93 1548.14 1412.83C1548.14 1415.72 1545.79 1418.07 1542.89 1418.07C1539.99 1418.07 1537.65 1415.72 1537.65 1412.83C1537.65 1409.93 1539.99 1407.58 1542.89 1407.58Z" fill="#2F3947"/>
<path d="M1563.22 1407.58C1566.12 1407.58 1568.47 1409.93 1568.47 1412.83C1568.47 1415.72 1566.12 1418.07 1563.22 1418.07C1560.32 1418.07 1557.97 1415.72 1557.97 1412.83C1557.97 1409.93 1560.32 1407.58 1563.22 1407.58Z" fill="#2F3947"/>
<path d="M1481.9 1387.25C1484.8 1387.25 1487.15 1389.6 1487.15 1392.5C1487.15 1395.4 1484.8 1397.74 1481.9 1397.74C1479 1397.74 1476.65 1395.4 1476.65 1392.5C1476.65 1389.6 1479 1387.25 1481.9 1387.25Z" fill="#2F3947"/>
<path d="M1502.23 1387.25C1505.13 1387.25 1507.48 1389.6 1507.48 1392.5C1507.48 1395.4 1505.13 1397.74 1502.23 1397.74C1499.33 1397.74 1496.98 1395.4 1496.98 1392.5C1496.98 1389.6 1499.33 1387.25 1502.23 1387.25Z" fill="#2F3947"/>
<path d="M1522.56 1387.25C1525.46 1387.25 1527.81 1389.6 1527.81 1392.5C1527.81 1395.4 1525.46 1397.74 1522.56 1397.74C1519.66 1397.74 1517.32 1395.4 1517.32 1392.5C1517.32 1389.6 1519.66 1387.25 1522.56 1387.25Z" fill="#2F3947"/>
<path d="M1542.89 1387.25C1545.79 1387.25 1548.14 1389.6 1548.14 1392.5C1548.14 1395.4 1545.79 1397.74 1542.89 1397.74C1539.99 1397.74 1537.65 1395.4 1537.65 1392.5C1537.65 1389.6 1539.99 1387.25 1542.89 1387.25Z" fill="#2F3947"/>
<path d="M1563.22 1387.25C1566.12 1387.25 1568.47 1389.6 1568.47 1392.5C1568.47 1395.4 1566.12 1397.74 1563.22 1397.74C1560.32 1397.74 1557.97 1395.4 1557.97 1392.5C1557.97 1389.6 1560.32 1387.25 1563.22 1387.25Z" fill="#2F3947"/>
<path d="M1481.9 1366.92C1484.8 1366.92 1487.15 1369.27 1487.15 1372.17C1487.15 1375.06 1484.8 1377.41 1481.9 1377.41C1479 1377.41 1476.65 1375.06 1476.65 1372.17C1476.65 1369.27 1479 1366.92 1481.9 1366.92Z" fill="#2F3947"/>
<path d="M1502.23 1366.92C1505.13 1366.92 1507.48 1369.27 1507.48 1372.17C1507.48 1375.06 1505.13 1377.41 1502.23 1377.41C1499.33 1377.41 1496.98 1375.06 1496.98 1372.17C1496.98 1369.27 1499.33 1366.92 1502.23 1366.92Z" fill="#2F3947"/>
<path d="M1522.56 1366.92C1525.46 1366.92 1527.81 1369.27 1527.81 1372.17C1527.81 1375.06 1525.46 1377.41 1522.56 1377.41C1519.66 1377.41 1517.32 1375.06 1517.32 1372.17C1517.32 1369.27 1519.66 1366.92 1522.56 1366.92Z" fill="#2F3947"/>
<path d="M1542.89 1366.92C1545.79 1366.92 1548.14 1369.27 1548.14 1372.17C1548.14 1375.06 1545.79 1377.41 1542.89 1377.41C1539.99 1377.41 1537.65 1375.06 1537.65 1372.17C1537.65 1369.27 1539.99 1366.92 1542.89 1366.92Z" fill="#2F3947"/>
<path d="M1563.22 1366.92C1566.12 1366.92 1568.47 1369.27 1568.47 1372.17C1568.47 1375.06 1566.12 1377.41 1563.22 1377.41C1560.32 1377.41 1557.97 1375.06 1557.97 1372.17C1557.97 1369.27 1560.32 1366.92 1563.22 1366.92Z" fill="#2F3947"/>
<path d="M1481.9 1346.59C1484.8 1346.59 1487.15 1348.94 1487.15 1351.84C1487.15 1354.73 1484.8 1357.08 1481.9 1357.08C1479 1357.08 1476.65 1354.73 1476.65 1351.84C1476.65 1348.94 1479 1346.59 1481.9 1346.59Z" fill="#2F3947"/>
<path d="M1502.23 1346.59C1505.13 1346.59 1507.48 1348.94 1507.48 1351.84C1507.48 1354.73 1505.13 1357.08 1502.23 1357.08C1499.33 1357.08 1496.98 1354.73 1496.98 1351.84C1496.98 1348.94 1499.33 1346.59 1502.23 1346.59Z" fill="#2F3947"/>
<path d="M1522.56 1346.59C1525.46 1346.59 1527.81 1348.94 1527.81 1351.84C1527.81 1354.73 1525.46 1357.08 1522.56 1357.08C1519.66 1357.08 1517.32 1354.73 1517.32 1351.84C1517.32 1348.94 1519.66 1346.59 1522.56 1346.59Z" fill="#2F3947"/>
<path d="M1542.89 1346.59C1545.79 1346.59 1548.14 1348.94 1548.14 1351.84C1548.14 1354.73 1545.79 1357.08 1542.89 1357.08C1539.99 1357.08 1537.65 1354.73 1537.65 1351.84C1537.65 1348.94 1539.99 1346.59 1542.89 1346.59Z" fill="#2F3947"/>
<path d="M1563.22 1346.59C1566.12 1346.59 1568.47 1348.94 1568.47 1351.84C1568.47 1354.73 1566.12 1357.08 1563.22 1357.08C1560.32 1357.08 1557.97 1354.73 1557.97 1351.84C1557.97 1348.94 1560.32 1346.59 1563.22 1346.59Z" fill="#2F3947"/>
<path d="M1481.9 1326.26C1484.8 1326.26 1487.15 1328.61 1487.15 1331.51C1487.15 1334.41 1484.8 1336.75 1481.9 1336.75C1479 1336.75 1476.65 1334.41 1476.65 1331.51C1476.65 1328.61 1479 1326.26 1481.9 1326.26Z" fill="#2F3947"/>
<path d="M1502.23 1326.26C1505.13 1326.26 1507.48 1328.61 1507.48 1331.51C1507.48 1334.41 1505.13 1336.75 1502.23 1336.75C1499.33 1336.75 1496.98 1334.41 1496.98 1331.51C1496.98 1328.61 1499.33 1326.26 1502.23 1326.26Z" fill="#2F3947"/>
<path d="M1522.56 1326.26C1525.46 1326.26 1527.81 1328.61 1527.81 1331.51C1527.81 1334.41 1525.46 1336.75 1522.56 1336.75C1519.66 1336.75 1517.32 1334.41 1517.32 1331.51C1517.32 1328.61 1519.66 1326.26 1522.56 1326.26Z" fill="#2F3947"/>
<path d="M1542.89 1326.26C1545.79 1326.26 1548.14 1328.61 1548.14 1331.51C1548.14 1334.41 1545.79 1336.75 1542.89 1336.75C1539.99 1336.75 1537.65 1334.41 1537.65 1331.51C1537.65 1328.61 1539.99 1326.26 1542.89 1326.26Z" fill="#2F3947"/>
<path d="M1563.22 1326.26C1566.12 1326.26 1568.47 1328.61 1568.47 1331.51C1568.47 1334.41 1566.12 1336.75 1563.22 1336.75C1560.32 1336.75 1557.97 1334.41 1557.97 1331.51C1557.97 1328.61 1560.32 1326.26 1563.22 1326.26Z" fill="#2F3947"/>
<path fill-rule="evenodd" clip-rule="evenodd" d="M1465.18 981.963C1484.19 981.963 1499.61 966.55 1499.61 947.533C1499.61 928.517 1484.19 913.104 1465.18 913.104C1446.16 913.104 1430.75 928.517 1430.75 947.533C1430.75 966.55 1446.16 981.963 1465.18 981.963ZM1465.18 993.44C1490.53 993.44 1511.08 972.885 1511.08 947.533C1511.08 922.182 1490.53 901.627 1465.18 901.627C1439.83 901.627 1419.27 922.182 1419.27 947.533C1419.27 972.885 1439.83 993.44 1465.18 993.44Z" fill="#2F3947"/>
<path fill-rule="evenodd" clip-rule="evenodd" d="M1488.13 1004.92C1507.15 1004.92 1522.56 989.503 1522.56 970.486C1522.56 951.47 1507.15 936.057 1488.13 936.057C1469.11 936.057 1453.7 951.47 1453.7 970.486C1453.7 989.503 1469.11 1004.92 1488.13 1004.92ZM1488.13 1016.39C1513.48 1016.39 1534.04 995.838 1534.04 970.486C1534.04 945.135 1513.48 924.58 1488.13 924.58C1462.78 924.58 1442.22 945.135 1442.22 970.486C1442.22 995.838 1462.78 1016.39 1488.13 1016.39Z" fill="#3B4AE2"/>
<path d="M137.156 161.543C57.356 207.784 12.4687 180.81 0 161.543V1.73862H321.395C330.823 0.615739 341.184 0.556296 352.686 1.73862H321.395C235.921 11.9175 226.995 109.484 137.156 161.543Z" fill="#3B4AE2"/>
<path d="M42.4866 104.1C45.384 104.1 47.7333 106.449 47.7333 109.346C47.7333 112.244 45.384 114.593 42.4866 114.593C39.5891 114.593 37.2402 112.244 37.2402 109.346C37.2402 106.449 39.5891 104.1 42.4866 104.1Z" fill="#2F3947"/>
<path d="M62.8157 104.1C65.7131 104.1 68.062 106.449 68.062 109.346C68.062 112.244 65.7131 114.593 62.8157 114.593C59.9182 114.593 57.5693 112.244 57.5693 109.346C57.5693 106.449 59.9182 104.1 62.8157 104.1Z" fill="#2F3947"/>
<path d="M83.1472 104.1C86.0447 104.1 88.3936 106.449 88.3936 109.346C88.3936 112.244 86.0447 114.593 83.1472 114.593C80.2498 114.593 77.9009 112.244 77.9009 109.346C77.9009 106.449 80.2498 104.1 83.1472 104.1Z" fill="#2F3947"/>
<path d="M103.477 104.1C106.374 104.1 108.723 106.449 108.723 109.346C108.723 112.244 106.374 114.593 103.477 114.593C100.579 114.593 98.2305 112.244 98.2305 109.346C98.2305 106.449 100.579 104.1 103.477 104.1Z" fill="#2F3947"/>
<path d="M123.806 104.1C126.704 104.1 129.053 106.449 129.053 109.346C129.053 112.244 126.704 114.593 123.806 114.593C120.909 114.593 118.56 112.244 118.56 109.346C118.56 106.449 120.909 104.1 123.806 104.1Z" fill="#2F3947"/>
<path d="M42.4866 83.769C45.384 83.769 47.7333 86.1179 47.7333 89.0154C47.7333 91.9128 45.384 94.2617 42.4866 94.2617C39.5891 94.2617 37.2402 91.9128 37.2402 89.0154C37.2402 86.1179 39.5891 83.769 42.4866 83.769Z" fill="#2F3947"/>
<path d="M62.8157 83.769C65.7131 83.769 68.062 86.1179 68.062 89.0154C68.062 91.9128 65.7131 94.2617 62.8157 94.2617C59.9182 94.2617 57.5693 91.9128 57.5693 89.0154C57.5693 86.1179 59.9182 83.769 62.8157 83.769Z" fill="#2F3947"/>
<path d="M83.1472 83.769C86.0447 83.769 88.3936 86.1179 88.3936 89.0154C88.3936 91.9128 86.0447 94.2617 83.1472 94.2617C80.2498 94.2617 77.9009 91.9128 77.9009 89.0154C77.9009 86.1179 80.2498 83.769 83.1472 83.769Z" fill="#2F3947"/>
<path d="M103.477 83.769C106.374 83.769 108.723 86.1179 108.723 89.0154C108.723 91.9128 106.374 94.2617 103.477 94.2617C100.579 94.2617 98.2305 91.9128 98.2305 89.0154C98.2305 86.1179 100.579 83.769 103.477 83.769Z" fill="#2F3947"/>
<path d="M123.806 83.769C126.704 83.769 129.053 86.1179 129.053 89.0154C129.053 91.9128 126.704 94.2617 123.806 94.2617C120.909 94.2617 118.56 91.9128 118.56 89.0154C118.56 86.1179 120.909 83.769 123.806 83.769Z" fill="#2F3947"/>
<path d="M42.4866 63.4385C45.384 63.4385 47.7333 65.7874 47.7333 68.6848C47.7333 71.5823 45.384 73.9311 42.4866 73.9311C39.5891 73.9311 37.2402 71.5823 37.2402 68.6848C37.2402 65.7874 39.5891 63.4385 42.4866 63.4385Z" fill="#2F3947"/>
<path d="M62.8157 63.4385C65.7131 63.4385 68.062 65.7874 68.062 68.6848C68.062 71.5823 65.7131 73.9311 62.8157 73.9311C59.9182 73.9311 57.5693 71.5823 57.5693 68.6848C57.5693 65.7874 59.9182 63.4385 62.8157 63.4385Z" fill="#2F3947"/>
<path d="M83.1472 63.4385C86.0447 63.4385 88.3936 65.7874 88.3936 68.6848C88.3936 71.5823 86.0447 73.9311 83.1472 73.9311C80.2498 73.9311 77.9009 71.5823 77.9009 68.6848C77.9009 65.7874 80.2498 63.4385 83.1472 63.4385Z" fill="#2F3947"/>
<path d="M103.477 63.4385C106.374 63.4385 108.723 65.7874 108.723 68.6848C108.723 71.5823 106.374 73.9311 103.477 73.9311C100.579 73.9311 98.2305 71.5823 98.2305 68.6848C98.2305 65.7874 100.579 63.4385 103.477 63.4385Z" fill="#2F3947"/>
<path d="M123.806 63.4385C126.704 63.4385 129.053 65.7874 129.053 68.6848C129.053 71.5823 126.704 73.9311 123.806 73.9311C120.909 73.9311 118.56 71.5823 118.56 68.6848C118.56 65.7874 120.909 63.4385 123.806 63.4385Z" fill="#2F3947"/>
<path d="M42.4866 43.1104C45.384 43.1104 47.7333 45.4592 47.7333 48.3567C47.7333 51.2541 45.384 53.603 42.4866 53.603C39.5891 53.603 37.2402 51.2541 37.2402 48.3567C37.2402 45.4592 39.5891 43.1104 42.4866 43.1104Z" fill="#2F3947"/>
<path d="M62.8157 43.1104C65.7131 43.1104 68.062 45.4592 68.062 48.3567C68.062 51.2541 65.7131 53.603 62.8157 53.603C59.9182 53.603 57.5693 51.2541 57.5693 48.3567C57.5693 45.4592 59.9182 43.1104 62.8157 43.1104Z" fill="#2F3947"/>
<path d="M83.1472 43.1104C86.0447 43.1104 88.3936 45.4592 88.3936 48.3567C88.3936 51.2541 86.0447 53.603 83.1472 53.603C80.2498 53.603 77.9009 51.2541 77.9009 48.3567C77.9009 45.4592 80.2498 43.1104 83.1472 43.1104Z" fill="#2F3947"/>
<path d="M103.477 43.1104C106.374 43.1104 108.723 45.4592 108.723 48.3567C108.723 51.2541 106.374 53.603 103.477 53.603C100.579 53.603 98.2305 51.2541 98.2305 48.3567C98.2305 45.4592 100.579 43.1104 103.477 43.1104Z" fill="#2F3947"/>
<path d="M123.806 43.1104C126.704 43.1104 129.053 45.4592 129.053 48.3567C129.053 51.2541 126.704 53.603 123.806 53.603C120.909 53.603 118.56 51.2541 118.56 48.3567C118.56 45.4592 120.909 43.1104 123.806 43.1104Z" fill="#2F3947"/>
<path d="M42.4866 22.7798C45.384 22.7798 47.7333 25.1287 47.7333 28.0261C47.7333 30.9236 45.384 33.2728 42.4866 33.2728C39.5891 33.2728 37.2402 30.9236 37.2402 28.0261C37.2402 25.1287 39.5891 22.7798 42.4866 22.7798Z" fill="#2F3947"/>
<path d="M62.8157 22.7798C65.7131 22.7798 68.062 25.1287 68.062 28.0261C68.062 30.9236 65.7131 33.2728 62.8157 33.2728C59.9182 33.2728 57.5693 30.9236 57.5693 28.0261C57.5693 25.1287 59.9182 22.7798 62.8157 22.7798Z" fill="#2F3947"/>
<path d="M83.1472 22.7798C86.0447 22.7798 88.3936 25.1287 88.3936 28.0261C88.3936 30.9236 86.0447 33.2728 83.1472 33.2728C80.2498 33.2728 77.9009 30.9236 77.9009 28.0261C77.9009 25.1287 80.2498 22.7798 83.1472 22.7798Z" fill="#2F3947"/>
<path d="M103.477 22.7798C106.374 22.7798 108.723 25.1287 108.723 28.0261C108.723 30.9236 106.374 33.2728 103.477 33.2728C100.579 33.2728 98.2305 30.9236 98.2305 28.0261C98.2305 25.1287 100.579 22.7798 103.477 22.7798Z" fill="#2F3947"/>
<path d="M123.806 22.7798C126.704 22.7798 129.053 25.1287 129.053 28.0261C129.053 30.9236 126.704 33.2728 123.806 33.2728C120.909 33.2728 118.56 30.9236 118.56 28.0261C118.56 25.1287 120.909 22.7798 123.806 22.7798Z" fill="#2F3947"/>
</svg>
